<svg xmlns="http://www.w3.org/2000/svg" xmlns:xlink="http://www.w3.org/1999/xlink" width="1080" height="1080" style="width:100%;height:100%;transform:translate3d(0,0,0);content-visibility:visible"><defs><mask id="cn" mask-type="alpha"><use xlink:href="#a"/></mask><mask id="cl" mask-type="alpha"><g filter="url(#b)"><use xlink:href="#c"/></g></mask><mask id="ck" mask-type="alpha"><use xlink:href="#d"/></mask><mask id="cj" mask-type="alpha"><use xlink:href="#e"/></mask><mask id="ch" mask-type="alpha"><g filter="url(#f)"><use xlink:href="#g"/></g></mask><mask id="cf" mask-type="alpha"><use xlink:href="#h"/></mask><mask id="cd" mask-type="alpha"><g filter="url(#i)"><use xlink:href="#j"/></g></mask><mask id="cc" mask-type="alpha"><use xlink:href="#k"/></mask><mask id="cb" mask-type="alpha"><use xlink:href="#l"/></mask><mask id="bZ" mask-type="alpha"><g filter="url(#m)"><use xlink:href="#n"/></g></mask><mask id="bX" mask-type="alpha"><use xlink:href="#o"/></mask><mask id="bV" mask-type="alpha"><g filter="url(#p)"><use xlink:href="#q"/></g></mask><mask id="bU" mask-type="alpha"><use xlink:href="#r"/></mask><mask id="bT" mask-type="alpha"><use xlink:href="#s"/></mask><mask id="bR" mask-type="alpha"><g filter="url(#t)"><use xlink:href="#u"/></g></mask><mask id="bH" mask-type="alpha"><use xlink:href="#v"/></mask><mask id="bG" mask-type="alpha"><use xlink:href="#w"/></mask><mask id="bE" mask-type="alpha"><use xlink:href="#x"/></mask><mask id="bD" mask-type="alpha"><use xlink:href="#y"/></mask><mask id="bB" mask-type="alpha"><use xlink:href="#z"/></mask><mask id="bA" mask-type="alpha"><use xlink:href="#A"/></mask><mask id="by" mask-type="alpha"><use xlink:href="#B"/></mask><mask id="bx" mask-type="alpha"><use xlink:href="#C"/></mask><mask id="bu" mask-type="alpha"><use xlink:href="#D"/></mask><mask id="bv" mask-type="alpha"><use xlink:href="#E"/></mask><mask id="br" mask-type="alpha"><use xlink:href="#F"/></mask><mask id="bs" mask-type="alpha"><use xlink:href="#G"/></mask><mask id="bo" mask-type="alpha"><use xlink:href="#H"/></mask><mask id="bp" mask-type="alpha"><use xlink:href="#I"/></mask><mask id="bl" mask-type="alpha"><use xlink:href="#J"/></mask><mask id="bm" mask-type="alpha"><use xlink:href="#K"/></mask><mask id="bh" mask-type="alpha"><use xlink:href="#L"/></mask><mask id="bd" mask-type="alpha"><use xlink:href="#M"/></mask><mask id="aZ" mask-type="alpha"><use xlink:href="#N"/></mask><mask id="aX" mask-type="alpha"><use xlink:href="#O"/></mask><mask id="aW" mask-type="alpha"><use xlink:href="#P"/></mask><mask id="aV" mask-type="alpha"><use xlink:href="#Q"/></mask><mask id="aT" mask-type="alpha"><use xlink:href="#R"/></mask><mask id="aS" mask-type="alpha"><use xlink:href="#S"/></mask><mask id="aR" mask-type="alpha"><use xlink:href="#T"/></mask><mask id="aP" mask-type="alpha"><use xlink:href="#U"/></mask><mask id="aO" mask-type="alpha"><use xlink:href="#V"/></mask><mask id="aN" mask-type="alpha"><use xlink:href="#W"/></mask><mask id="aL" mask-type="alpha"><use xlink:href="#X"/></mask><mask id="aK" mask-type="alpha"><use xlink:href="#Y"/></mask><mask id="aJ" mask-type="alpha"><use xlink:href="#Z"/></mask><mask id="aG" mask-type="alpha"><use xlink:href="#aa"/></mask><mask id="aF" mask-type="alpha"><use xlink:href="#ab"/></mask><mask id="aE" mask-type="alpha"><use xlink:href="#ac"/></mask><mask id="aC" mask-type="alpha"><use xlink:href="#ad"/></mask><mask id="az" mask-type="alpha"><use xlink:href="#ae"/></mask><mask id="ay" mask-type="alpha"><use xlink:href="#af"/></mask><mask id="ax" mask-type="alpha"><use xlink:href="#ag"/></mask><mask id="av" mask-type="alpha"><use xlink:href="#ah"/></mask><mask id="as" mask-type="alpha"><use xlink:href="#ai"/></mask><mask id="ar" mask-type="alpha"><use xlink:href="#aj"/></mask><mask id="aq" mask-type="alpha"><use xlink:href="#ak"/></mask><mask id="ao" mask-type="alpha"><use xlink:href="#al"/></mask><clipPath id="am"><path d="M0 0h1080v1080H0z"/></clipPath><clipPath id="cg"><path d="M0 0h1920v1079H0z"/></clipPath><clipPath id="cm"><path d="M0 0h1920v1079H0z"/></clipPath><clipPath id="ci"><path d="M0 0h1920v1079H0z"/></clipPath><clipPath id="bY"><path d="M0 0h1920v1079H0z"/></clipPath><clipPath id="ce"><path d="M0 0h1920v1079H0z"/></clipPath><clipPath id="ca"><path d="M0 0h1920v1079H0z"/></clipPath><clipPath id="bQ"><path d="M0 0h1920v1079H0z"/></clipPath><clipPath id="bW"><path d="M0 0h1920v1079H0z"/></clipPath><clipPath id="bS"><path d="M0 0h1920v1079H0z"/></clipPath><clipPath id="bP"><path d="M0 0h1920v1079H0z"/></clipPath><clipPath id="bO"><path d="M0 0h1920v1079H0z"/></clipPath><clipPath id="bN"><path d="M0 0h1920v1079H0z"/></clipPath><clipPath id="bM"><path d="M0 0h1920v1079H0z"/></clipPath><clipPath id="bL"><path d="M0 0h1920v1079H0z"/></clipPath><clipPath id="bK"><path d="M0 0h1920v1079H0z"/></clipPath><clipPath id="bJ"><path d="M0 0h1920v1079H0z"/></clipPath><clipPath id="bI"><path d="M0 0h1920v1079H0z"/></clipPath><clipPath id="bF"><path d="M0 0h1920v1079H0z"/></clipPath><clipPath id="bC"><path d="M0 0h1920v1079H0z"/></clipPath><clipPath id="bz"><path d="M0 0h1920v1079H0z"/></clipPath><clipPath id="bw"><path d="M0 0h1920v1079H0z"/></clipPath><clipPath id="bt"><path d="M0 0h1920v1079H0z"/></clipPath><clipPath id="bq"><path d="M0 0h1920v1079H0z"/></clipPath><clipPath id="bn"><path d="M0 0h1920v1079H0z"/></clipPath><clipPath id="bk"><path d="M0 0h1920v1079H0z"/></clipPath><clipPath id="bg"><path d="M0 0h1920v1079H0z"/></clipPath><clipPath id="bi"><path d="M0 0h1920v1079H0z"/></clipPath><clipPath id="bc"><path d="M0 0h1920v1079H0z"/></clipPath><clipPath id="be"><path d="M0 0h1920v1079H0z"/></clipPath><clipPath id="aY"><path d="M0 0h1920v1079H0z"/></clipPath><clipPath id="ba"><path d="M0 0h1920v1079H0z"/></clipPath><clipPath id="aU"><path d="M0 0h1920v1079H0z"/></clipPath><clipPath id="aQ"><path d="M0 0h1920v1079H0z"/></clipPath><clipPath id="aM"><path d="M0 0h1920v1079H0z"/></clipPath><clipPath id="aI"><path d="M0 0h1920v1079H0z"/></clipPath><clipPath id="aB"><path d="M0 0h1920v1079H0z"/></clipPath><clipPath id="aH"><path d="M0 0h1920v1079H0z"/></clipPath><clipPath id="aD"><path d="M0 0h1920v1079H0z"/></clipPath><clipPath id="au"><path d="M0 0h1920v1079H0z"/></clipPath><clipPath id="aA"><path d="M0 0h1920v1079H0z"/></clipPath><clipPath id="aw"><path d="M0 0h1920v1079H0z"/></clipPath><clipPath id="an"><path d="M0 0h1920v1079H0z"/></clipPath><clipPath id="at"><path d="M0 0h1920v1079H0z"/></clipPath><clipPath id="ap"><path d="M0 0h1920v1079H0z"/></clipPath><path fill="#DB8D74" d="M521.5 303c-16.5 11-42 12.5-66 13.5s-53.834 22.53-51 52c2.5 26 27.5 43 54.5 43.5 30.012.556 61-2.5 100.5-24s36.5-55.5 23.5-77-45-19-61.5-8z" transform="rotate(-6 6207.043 -8631.536)" style="display:block" id="e"/><path fill="#DB8D74" d="M521.5 303c-16.5 11-42 12.5-66 13.5s-53.834 22.53-51 52c2.5 26 27.5 43 54.5 43.5 30.012.556 61-2.5 100.5-24s36.5-55.5 23.5-77-45-19-61.5-8z" transform="rotate(-10 4091.52 -4911.194)" style="display:block" id="l"/><path fill="#DB8D74" d="M482.763 275.603c-62.54 10.163-70.236 76.625-62.591 127.106 8.645 49.929 23.159 76.255 59.745 71.089 30.143-4.48 46.95-27.825 42.718-65.137-4.113-34.11 2.888-55.598 6.279-76.482 5.387-32.209-15.527-60.714-46.15-56.576z" transform="rotate(35.667 107.154 2195.246)" style="display:block" id="o"/><path fill="#DB8D74" d="M521.5 303c-16.5 11-42 12.5-66 13.5s-53.834 22.53-51 52c2.5 26 27.5 43 54.5 43.5 30.012.556 61-2.5 100.5-24s36.5-55.5 23.5-77-45-19-61.5-8z" transform="translate(975 551.5)" style="display:block" id="s"/><path fill="#FFCBA3" d="M208.585-408.855c-7.835-3.645-36.835-2.645-50.532 21.238-12.377 21.58-5.057 49.093 16.487 61.532 0 0 2.21 1.585 4.192 2.604C165-376.5 201.25-403.25 213.777-407.001c-1.277-.999-5.192-1.854-5.192-1.854z" transform="rotate(.02 -2326156.838 4082455.061)" style="display:block" id="v"/><path fill="#B23232" d="m181.611-391.64 1.47 3.198c1.386 3.013.04 6.561-3.004 7.925-3.045 1.363-6.635.025-8.02-2.989l-1.47-3.198c-1.386-3.014-.041-6.561 3.004-7.925 3.044-1.363 6.635-.026 8.02 2.988z" transform="rotate(.02 -2326156.838 4082455.061)" style="display:block" id="w"/><path fill="#FFCBA3" d="M208.585-408.855c-7.835-3.645-36.835-2.645-50.532 21.238-12.377 21.58-5.057 49.093 16.487 61.532 0 0 2.21 1.585 4.192 2.604C165-376.5 201.25-403.25 213.777-407.001c-1.277-.999-5.192-1.854-5.192-1.854z" transform="rotate(.777 -42956.487 76431.45)" style="display:block" id="x"/><path fill="#B23232" d="m183.732-391.398 1.186 3.345c1.117 3.15-.647 6.53-3.94 7.548-3.291 1.017-6.866-.714-7.983-3.866l-1.186-3.344c-1.116-3.152.647-6.531 3.94-7.548 3.292-1.018 6.866.713 7.983 3.865z" transform="rotate(.777 -42956.487 76431.45)" style="display:block" id="y"/><path fill="#FFCBA3" d="M208.585-408.855c-7.835-3.645-36.835-2.645-50.532 21.238-12.377 21.58-5.057 49.093 16.487 61.532 0 0 2.21 1.585 4.192 2.604C165-376.5 201.25-403.25 213.777-407.001c-1.277-.999-5.192-1.854-5.192-1.854z" transform="rotate(1.568 -20927.52 37851.114)" style="display:block" id="z"/><path fill="#B23232" d="m184.23-391.34 1.119 3.378c1.054 3.184-.808 6.524-4.159 7.46-3.35.936-6.92-.888-7.975-4.072l-1.118-3.378c-1.054-3.185.808-6.524 4.158-7.46 3.35-.936 6.921.887 7.975 4.071z" transform="rotate(1.568 -20927.52 37851.114)" style="display:block" id="A"/><path fill="#FFCBA3" d="M208.585-408.855c-7.835-3.645-36.835-2.645-50.532 21.238-12.377 21.58-5.057 49.093 16.487 61.532 0 0 2.21 1.585 4.192 2.604C165-376.5 201.25-403.25 213.777-407.001c-1.277-.999-5.192-1.854-5.192-1.854z" transform="rotate(1.568 -20927.273 37851.03)" style="display:block" id="B"/><path fill="#B23232" d="m184.225-391.341 1.12 3.378c1.054 3.183-.807 6.524-4.156 7.46-3.35.938-6.921-.885-7.976-4.069l-1.12-3.378c-1.053-3.184.808-6.524 4.157-7.46 3.35-.938 6.921.884 7.975 4.069z" transform="rotate(1.568 -20927.273 37851.03)" style="display:block" id="C"/><path fill="#58CC02" d="M318.202-45.464c15.252 94.999-31.572 144.035-95.655 159.537-84.448 20.428-134.794-43.146-151.05-96.71C16-165.5 158.631-177.933 166.59-174.39a21.642 21.642 0 0 0 13.898 1.277c13.72-3.334 29.364-13.462 52.062-24.71 28.634-14.19 72.547 1.407 71.323 40.679 0 0 5.505 56.717 14.329 111.68zm-15 4c15.252 94.999-16.572 140.035-80.655 155.537-84.448 20.428-144.155-35.09-168.05-85.71C36.399-9.976 31.209-79.308 31.209-79.308c-2.443-42.408 8.57-88.445 47.15-106.222 17.568-8.095 35.66-11.367 49.816-6.28 21.939 7.884 30.456 13.877 38.415 17.42 4.363 1.942 127.788 77.963 136.612 132.926z" transform="rotate(-2.646 13776.4 -22136.3)" style="display:block" id="E"/><path fill="#58CC02" d="M318.202-45.464c15.252 94.999-31.572 144.035-95.655 159.537-84.448 20.428-134.794-43.146-151.05-96.71C16-165.5 158.631-177.933 166.59-174.39a21.642 21.642 0 0 0 13.898 1.277c13.72-3.334 29.364-13.462 52.062-24.71 28.634-14.19 72.547 1.407 71.323 40.679 0 0 5.505 56.717 14.329 111.68zm-15 4c15.252 94.999-16.572 140.035-80.655 155.537-84.448 20.428-144.155-35.09-168.05-85.71C36.399-9.976 31.209-79.308 31.209-79.308c-2.443-42.408 8.57-88.445 47.15-106.222 17.568-8.095 35.66-11.367 49.816-6.28 21.939 7.884 30.456 13.877 38.415 17.42 4.363 1.942 127.788 77.963 136.612 132.926z" transform="rotate(-2.989 12395.394 -19598.074)" style="display:block" id="G"/><path fill="#58CC02" d="M318.202-45.464c15.252 94.999-31.572 144.035-95.655 159.537-84.448 20.428-134.794-43.146-151.05-96.71C16-165.5 158.631-177.933 166.59-174.39a21.642 21.642 0 0 0 13.898 1.277c13.72-3.334 29.364-13.462 52.062-24.71 28.634-14.19 72.547 1.407 71.323 40.679 0 0 5.505 56.717 14.329 111.68zm-15 4c15.252 94.999-16.572 140.035-80.655 155.537-84.448 20.428-144.155-35.09-168.05-85.71C36.399-9.976 31.209-79.308 31.209-79.308c-2.443-42.408 8.57-88.445 47.15-106.222 17.568-8.095 35.66-11.367 49.816-6.28 21.939 7.884 30.456 13.877 38.415 17.42 4.363 1.942 127.788 77.963 136.612 132.926z" transform="rotate(-2.61 14172.762 -22524.002)" style="display:block" id="I"/><path fill="#58CC02" d="M318.202-45.464c15.252 94.999-31.572 144.035-95.655 159.537-84.448 20.428-134.794-43.146-151.05-96.71C16-165.5 158.631-177.933 166.59-174.39a21.642 21.642 0 0 0 13.898 1.277c13.72-3.334 29.364-13.462 52.062-24.71 28.634-14.19 72.547 1.407 71.323 40.679 0 0 5.505 56.717 14.329 111.68zm-15 4c15.252 94.999-16.572 140.035-80.655 155.537-84.448 20.428-144.155-35.09-168.05-85.71C36.399-9.976 31.209-79.308 31.209-79.308c-2.443-42.408 8.57-88.445 47.15-106.222 17.568-8.095 35.66-11.367 49.816-6.28 21.939 7.884 30.456 13.877 38.415 17.42 4.363 1.942 127.788 77.963 136.612 132.926z" transform="rotate(-2.985 12394.635 -19619.16)" style="display:block" id="K"/><path fill="#FFC7B8" d="M552.811-154.957c-14.873-8.982-34.962-11.237-52.179-1.891l-28.256 15.339a51.11 51.11 0 0 0-25.616 34.316l-7.98 37.63C434.57-49.714 440-30 458.986-17.428 477.972-4.856 510.5 12 528.501 43.852c6.897 12.204 42.974 11.603 54.934 7.15l38.691-9.376A38.335 38.335 0 0 0 651.93 8.839l6.319-51.72c-.568-6.318-6.973-19.296-11.519-26.102C621-107.5 590-132.5 552.811-154.957z" transform="rotate(-6.966 5759.877 -7826.362)" style="display:block" id="L"/><path fill="#FFC7B8" d="M552.811-154.957c-14.873-8.982-34.962-11.237-52.179-1.891l-28.256 15.339a51.11 51.11 0 0 0-25.616 34.316l-7.98 37.63C434.57-49.714 440-30 458.986-17.428 477.972-4.856 510.5 12 528.501 43.852c6.897 12.204 42.974 11.603 54.934 7.15l38.691-9.376A38.335 38.335 0 0 0 651.93 8.839l6.319-51.72c-.568-6.318-6.973-19.296-11.519-26.102C621-107.5 590-132.5 552.811-154.957z" transform="rotate(-6.749 5935.156 -8054.843)" style="display:block" id="M"/><path fill="#FFC7B8" d="M552.811-154.957c-14.873-8.982-34.962-11.237-52.179-1.891l-28.256 15.339a51.11 51.11 0 0 0-25.616 34.316l-7.98 37.63C434.57-49.714 440-30 458.986-17.428 477.972-4.856 510.5 12 528.501 43.852c6.897 12.204 42.974 11.603 54.934 7.15l38.691-9.376A38.335 38.335 0 0 0 651.93 8.839l6.319-51.72c-.568-6.318-6.973-19.296-11.519-26.102C621-107.5 590-132.5 552.811-154.957z" transform="rotate(-6.966 5759.878 -7826.362)" style="display:block" id="N"/><path fill="#CC348D" d="M745.232-224.137c-.304-28.44 22.505-51.741 50.945-52.045 28.44-.304 51.741 22.506 52.045 50.946.304 28.44-22.505 51.74-50.945 52.044-28.44.304-51.741-22.505-52.045-50.945z" transform="rotate(-3.225 11773.017 -18195.726)" style="display:block" id="O"/><path fill="#0084C2" d="M732.862-124.382c4.759-25.473 29.266-42.264 54.739-37.505s42.265 29.265 37.506 54.738-29.266 42.265-54.739 37.506-42.265-29.266-37.506-54.739z" transform="rotate(3.225 -9135.546 18467.86)" style="display:block" id="P"/><path fill="#AFD5E0" d="M750.527-172.52c-2.856 6.832 153.036 310.917-59.97 264.614s1.1-278.504 4.916-287.632c3.816-9.128 19.234-11.375 34.437-5.019 15.203 6.356 24.433 18.909 20.617 28.037z" transform="rotate(-6.449 6505.285 -9054.674)" style="display:block" id="Q"/><path fill="#CC348D" d="M745.232-224.137c-.304-28.44 22.505-51.741 50.945-52.045 28.44-.304 51.741 22.506 52.045 50.946.304 28.44-22.505 51.74-50.945 52.044-28.44.304-51.741-22.505-52.045-50.945z" transform="rotate(-6 6923.643 -9693.814)" style="display:block" id="R"/><path fill="#0084C2" d="M732.862-124.382c4.759-25.473 29.266-42.264 54.739-37.505s42.265 29.265 37.506 54.738-29.266 42.265-54.739 37.506-42.265-29.266-37.506-54.739z" transform="rotate(6 -4290.019 9963.866)" style="display:block" id="S"/><path fill="#AFD5E0" d="M750.527-172.52c-2.856 6.832 153.036 310.917-59.97 264.614s1.1-278.504 4.916-287.632c3.816-9.128 19.234-11.375 34.437-5.019 15.203 6.356 24.433 18.909 20.617 28.037z" transform="rotate(-12 4075.192 -4787.988)" style="display:block" id="T"/><path fill="#CC348D" d="M745.232-224.137c-.304-28.44 22.505-51.741 50.945-52.045 28.44-.304 51.741 22.506 52.045 50.946.304 28.44-22.505 51.74-50.945 52.044-28.44.304-51.741-22.505-52.045-50.945z" transform="rotate(-5.989 6934.078 -9712.103)" style="display:block" id="U"/><path fill="#0084C2" d="M732.862-124.382c4.759-25.473 29.266-42.264 54.739-37.505s42.265 29.265 37.506 54.738-29.266 42.265-54.739 37.506-42.265-29.266-37.506-54.739z" transform="rotate(5.989 -4300.438 9982.162)" style="display:block" id="V"/><path fill="#AFD5E0" d="M750.527-172.52c-2.856 6.832 153.036 310.917-59.97 264.614s1.1-278.504 4.916-287.632c3.816-9.128 19.234-11.375 34.437-5.019 15.203 6.356 24.433 18.909 20.617 28.037z" transform="rotate(-11.978 4080.432 -4797.177)" style="display:block" id="W"/><path fill="#CC348D" d="M745.232-224.137c-.304-28.44 22.505-51.741 50.945-52.045 28.44-.304 51.741 22.506 52.045 50.946.304 28.44-22.505 51.74-50.945 52.044-28.44.304-51.741-22.505-52.045-50.945z" transform="rotate(-5.989 6934.078 -9712.103)" style="display:block" id="X"/><path fill="#0084C2" d="M732.862-124.382c4.759-25.473 29.266-42.264 54.739-37.505s42.265 29.265 37.506 54.738-29.266 42.265-54.739 37.506-42.265-29.266-37.506-54.739z" transform="rotate(5.989 -4300.438 9982.162)" style="display:block" id="Y"/><path fill="#AFD5E0" d="M750.527-172.52c-2.856 6.832 153.036 310.917-59.97 264.614s1.1-278.504 4.916-287.632c3.816-9.128 19.234-11.375 34.437-5.019 15.203 6.356 24.433 18.909 20.617 28.037z" transform="rotate(-11.976 4080.956 -4798.09)" style="display:block" id="Z"/><path fill="#FFF" d="M638.033-169.849c-41.207 112.587-110.385 302.331-170.99 469.348-11.827 32.594-21.429 51.144-71.04 55.59-84.82 7.601-163.41 13.29-252.041 16.588-15.917.592-33.228-11.412-36.908-42.619-14.53-123.235-31.678-302.891-47.058-481.524-2.828-32.845 23.041-69.646 70.892-70.091 112.027-1.042 349.193-14.511 455.264-10.36 34.205 1.339 62.292 34.624 51.881 63.068z" transform="rotate(-145 914.887 215.665) scale(.5)" style="display:block" id="aa"/><path fill="#FFF" d="M615.125 597.383S518.546 449.096 506.719 481.69c-11.827 32.594-61.105-131.047-110.716-126.601-84.82 7.601-163.41 13.29-252.041 16.588-15.917.592-33.228-11.412-36.908-42.619-14.53-123.235-31.678-302.891-47.058-481.524-2.828-32.845 23.041-69.646 70.892-70.091 112.027-1.042 349.193-14.511 455.264-10.36 34.205 1.339 62.292 34.624 51.881 63.068C596.826-57.262 923.151 9.427 923.151 9.427s83.359 177.85 82.666 179.759c-.334.919-390.692 408.197-390.692 408.197z" transform="rotate(-145 914.887 215.665) scale(.5)" style="display:block" id="ad"/><path fill="#FFF" d="M412.599 78.212c-6.132 3.04-7.257 9.111-7.45 10.036l-2.078 9.955c-.804 3.852 1.678 7.626 5.543 8.43l7.348 1.528c7.924 1.648 15.683-3.417 17.331-11.313.495-2.371 3.308-16.424 3.308-16.424s-16.193-6.083-24.002-2.212zm-14.702-3.734c3.902 5.915 3.593 9.268 3.279 11.761-.411 3.262-1.961 10.655-1.961 10.655-.863 4.124-4.939 6.767-9.102 5.904l-7.271-1.508c-8.179-1.696-13.434-9.638-11.738-17.74.661-3.158 3.897-16.189 3.897-16.189s19.186 1.492 22.896 7.117z" transform="rotate(-.773 44097.058 -72757.563)" style="display:block" id="ab"/><path fill="#FFF" d="M412.599 78.212c-6.132 3.04-7.257 9.111-7.45 10.036l-2.078 9.955c-.804 3.852 1.678 7.626 5.543 8.43l7.348 1.528c7.924 1.648 15.683-3.417 17.331-11.313.495-2.371 3.308-16.424 3.308-16.424s-16.193-6.083-24.002-2.212zm-14.702-3.734c3.902 5.915 3.593 9.268 3.279 11.761-.411 3.262-1.961 10.655-1.961 10.655-.863 4.124-4.939 6.767-9.102 5.904l-7.271-1.508c-8.179-1.696-13.434-9.638-11.738-17.74.661-3.158 3.897-16.189 3.897-16.189s19.186 1.492 22.896 7.117z" transform="rotate(-.773 44097.058 -72757.563)" style="display:block" id="ac"/><path fill="#FFF" d="M638.033-169.849c-41.207 112.587-110.385 302.331-170.99 469.348-11.827 32.594-21.429 51.144-71.04 55.59-84.82 7.601-163.41 13.29-252.041 16.588-15.917.592-33.228-11.412-36.908-42.619-14.53-123.235-31.678-302.891-47.058-481.524-2.828-32.845 23.041-69.646 70.892-70.091 112.027-1.042 349.193-14.511 455.264-10.36 34.205 1.339 62.292 34.624 51.881 63.068z" transform="rotate(-145 914.887 215.665) scale(.5)" style="display:block" id="ae"/><path fill="#FFF" d="M615.125 597.383S518.546 449.096 506.719 481.69c-11.827 32.594-61.105-131.047-110.716-126.601-84.82 7.601-163.41 13.29-252.041 16.588-15.917.592-33.228-11.412-36.908-42.619-14.53-123.235-31.678-302.891-47.058-481.524-2.828-32.845 23.041-69.646 70.892-70.091 112.027-1.042 349.193-14.511 455.264-10.36 34.205 1.339 62.292 34.624 51.881 63.068C596.826-57.262 923.151 9.427 923.151 9.427s83.359 177.85 82.666 179.759c-.334.919-390.692 408.197-390.692 408.197z" transform="rotate(-145 914.887 215.665) scale(.5)" style="display:block" id="ah"/><path fill="#FFF" d="M412.599 78.212c-6.132 3.04-7.257 9.111-7.45 10.036l-2.078 9.955c-.804 3.852 1.678 7.626 5.543 8.43l7.348 1.528c7.924 1.648 15.683-3.417 17.331-11.313.495-2.371 3.308-16.424 3.308-16.424s-16.193-6.083-24.002-2.212zm-14.702-3.734c3.902 5.915 3.593 9.268 3.279 11.761-.411 3.262-1.961 10.655-1.961 10.655-.863 4.124-4.939 6.767-9.102 5.904l-7.271-1.508c-8.179-1.696-13.434-9.638-11.738-17.74.661-3.158 3.897-16.189 3.897-16.189s19.186 1.492 22.896 7.117z" transform="rotate(-.18 186097.259 -315157.743)" style="display:block" id="af"/><path fill="#FFF" d="M412.599 78.212c-6.132 3.04-7.257 9.111-7.45 10.036l-2.078 9.955c-.804 3.852 1.678 7.626 5.543 8.43l7.348 1.528c7.924 1.648 15.683-3.417 17.331-11.313.495-2.371 3.308-16.424 3.308-16.424s-16.193-6.083-24.002-2.212zm-14.702-3.734c3.902 5.915 3.593 9.268 3.279 11.761-.411 3.262-1.961 10.655-1.961 10.655-.863 4.124-4.939 6.767-9.102 5.904l-7.271-1.508c-8.179-1.696-13.434-9.638-11.738-17.74.661-3.158 3.897-16.189 3.897-16.189s19.186 1.492 22.896 7.117z" transform="rotate(-.18 186097.259 -315157.743)" style="display:block" id="ag"/><path fill="#FFF" d="M638.033-169.849c-41.207 112.587-110.385 302.331-170.99 469.348-11.827 32.594-21.429 51.144-71.04 55.59-84.82 7.601-163.41 13.29-252.041 16.588-15.917.592-33.228-11.412-36.908-42.619-14.53-123.235-31.678-302.891-47.058-481.524-2.828-32.845 23.041-69.646 70.892-70.091 112.027-1.042 349.193-14.511 455.264-10.36 34.205 1.339 62.292 34.624 51.881 63.068z" transform="rotate(-145 914.887 215.665) scale(.5)" style="display:block" id="ai"/><path fill="#FFF" d="M615.125 597.383S518.546 449.096 506.719 481.69c-11.827 32.594-61.105-131.047-110.716-126.601-84.82 7.601-163.41 13.29-252.041 16.588-15.917.592-33.228-11.412-36.908-42.619-14.53-123.235-31.678-302.891-47.058-481.524-2.828-32.845 23.041-69.646 70.892-70.091 112.027-1.042 349.193-14.511 455.264-10.36 34.205 1.339 62.292 34.624 51.881 63.068C596.826-57.262 923.151 9.427 923.151 9.427s83.359 177.85 82.666 179.759c-.334.919-390.692 408.197-390.692 408.197z" transform="rotate(-145 914.887 215.665) scale(.5)" style="display:block" id="al"/><path fill="#FFF" d="M412.599 78.212c-6.132 3.04-7.257 9.111-7.45 10.036l-2.078 9.955c-.804 3.852 1.678 7.626 5.543 8.43l7.348 1.528c7.924 1.648 15.683-3.417 17.331-11.313.495-2.371 3.308-16.424 3.308-16.424s-16.193-6.083-24.002-2.212zm-14.702-3.734c3.902 5.915 3.593 9.268 3.279 11.761-.411 3.262-1.961 10.655-1.961 10.655-.863 4.124-4.939 6.767-9.102 5.904l-7.271-1.508c-8.179-1.696-13.434-9.638-11.738-17.74.661-3.158 3.897-16.189 3.897-16.189s19.186 1.492 22.896 7.117z" transform="rotate(-5 7434.471 -10806.925)" style="display:block" id="aj"/><path fill="#FFF" d="M412.599 78.212c-6.132 3.04-7.257 9.111-7.45 10.036l-2.078 9.955c-.804 3.852 1.678 7.626 5.543 8.43l7.348 1.528c7.924 1.648 15.683-3.417 17.331-11.313.495-2.371 3.308-16.424 3.308-16.424s-16.193-6.083-24.002-2.212zm-14.702-3.734c3.902 5.915 3.593 9.268 3.279 11.761-.411 3.262-1.961 10.655-1.961 10.655-.863 4.124-4.939 6.767-9.102 5.904l-7.271-1.508c-8.179-1.696-13.434-9.638-11.738-17.74.661-3.158 3.897-16.189 3.897-16.189s19.186 1.492 22.896 7.117z" transform="rotate(-5 7434.471 -10806.925)" style="display:block" id="ak"/><filter id="b" filterUnits="objectBoundingBox" x="0%" y="0%" width="100%" height="100%"><feComponentTransfer in="SourceGraphic"><feFuncA type="table" tableValues="1.0 0.0"/></feComponentTransfer></filter><filter id="f" filterUnits="objectBoundingBox" x="0%" y="0%" width="100%" height="100%"><feComponentTransfer in="SourceGraphic"><feFuncA type="table" tableValues="1.0 0.0"/></feComponentTransfer></filter><filter id="i" filterUnits="objectBoundingBox" x="0%" y="0%" width="100%" height="100%"><feComponentTransfer in="SourceGraphic"><feFuncA type="table" tableValues="1.0 0.0"/></feComponentTransfer></filter><filter id="m" filterUnits="objectBoundingBox" x="0%" y="0%" width="100%" height="100%"><feComponentTransfer in="SourceGraphic"><feFuncA type="table" tableValues="1.0 0.0"/></feComponentTransfer></filter><filter id="p" filterUnits="objectBoundingBox" x="0%" y="0%" width="100%" height="100%"><feComponentTransfer in="SourceGraphic"><feFuncA type="table" tableValues="1.0 0.0"/></feComponentTransfer></filter><filter id="t" filterUnits="objectBoundingBox" x="0%" y="0%" width="100%" height="100%"><feComponentTransfer in="SourceGraphic"><feFuncA type="table" tableValues="1.0 0.0"/></feComponentTransfer></filter><g style="display:block" id="g"><path fill="#FFF" d="M638.033-169.849c-41.207 112.587 498.002-704.754 437.397-537.737-11.827 32.594-744.654 15.526-794.265 19.972-84.82 7.601-1090.514 743.028-1179.146 746.325-15.917.593 94.439 209.272 90.759 178.065-14.53-123.236 483.127-306.895 467.747-485.528-1.182-13.726 402.119 68.144 410.47 55.978 11.633-16.946 32.039-29.524 59.893-29.783 112.027-1.042 349.193-14.511 455.264-10.36 34.205 1.339 62.291 34.624 51.881 63.068z" transform="rotate(-145 914.887 215.665) scale(.5)"/><path fill-opacity="0" stroke="#9DEEC7" stroke-width="6.5" d="M1230.584 803.67C1279.75 769.375 824.5 949.5 897.22 898.474c14.192-9.958 309.445 207.2 331.04 219.606 36.92 21.212 659.74 8.42 696.987 32.488 6.69 4.322 21.337-112.796 13.894-98.96-29.391 54.642-285.89-12.858-330.821 64.717-3.453 5.96-145.156-143.233-152.065-140.645-9.625 3.604-21.59 2.904-33.072-4.979-46.183-31.7-147.183-94.2-189.437-126.32-13.625-10.359-15.583-32.046-3.162-40.71z"/></g><g style="display:block" id="d"><path fill="#DB8D74" d="M521.5 303c-16.5 11-42 12.5-66 13.5s-53.834 22.53-51 52c2.5 26 27.5 43 54.5 43.5 30.012.556 61-2.5 100.5-24s36.5-55.5 23.5-77-45-19-61.5-8z" transform="rotate(-6 6207.043 -8631.536)"/><path fill-opacity="0" stroke="#3D3D3D" stroke-width="2" d="M1486.56 848.357c-15.26 12.664-40.464 16.822-64.228 20.325-23.764 3.503-51.184 28.034-45.285 57.046 5.204 25.596 31.844 39.89 58.748 37.565 29.906-2.584 60.405-8.863 97.441-34.374 37.036-25.51 30.499-59.011 15.323-79.034-15.177-20.024-46.74-14.193-62-1.528z"/></g><g style="display:block" id="n"><path fill="#FFF" d="M638.033-169.849c-41.207 112.587 498.002-704.754 437.397-537.737-11.827 32.594-744.654 15.526-794.265 19.972-84.82 7.601-1090.514 743.028-1179.146 746.325-15.917.593 94.439 209.272 90.759 178.065-14.53-123.236 483.127-306.895 467.747-485.528-1.182-13.726 402.119 68.144 410.47 55.978 11.633-16.946 32.039-29.524 59.893-29.783 112.027-1.042 349.193-14.511 455.264-10.36 34.205 1.339 62.291 34.624 51.881 63.068z" transform="rotate(-145 914.887 215.665) scale(.5)"/><path fill-opacity="0" stroke="#9DEEC7" stroke-width="6.5" d="M1230.584 803.67C1279.75 769.375 824.5 949.5 897.22 898.474c14.192-9.958 309.445 207.2 331.04 219.606 36.92 21.212 659.74 8.42 696.987 32.488 6.69 4.322 21.337-112.796 13.894-98.96-29.391 54.642-285.89-12.858-330.821 64.717-3.453 5.96-145.156-143.233-152.065-140.645-9.625 3.604-21.59 2.904-33.072-4.979-46.183-31.7-147.183-94.2-189.437-126.32-13.625-10.359-15.583-32.046-3.162-40.71z"/></g><g style="display:block" id="k"><path fill="#DB8D74" d="M521.5 303c-16.5 11-42 12.5-66 13.5s-53.834 22.53-51 52c2.5 26 27.5 43 54.5 43.5 30.012.556 61-2.5 100.5-24s36.5-55.5 23.5-77-45-19-61.5-8z" transform="rotate(-10 4091.52 -4911.194)"/><path fill-opacity="0" stroke="#3D3D3D" stroke-width="2" d="M1481.172 843.712c-14.34 13.698-39.191 19.603-62.653 24.756-23.462 5.152-49.104 31.536-41.195 60.066 6.976 25.17 34.549 37.571 61.225 33.375 29.653-4.664 59.64-13.054 94.806-41.087 35.166-28.032 26.308-60.995 9.772-79.91-16.536-18.917-47.616-10.898-61.955 2.8z"/></g><g style="display:block" id="u"><path fill="#FFF" d="M638.033-169.849c-41.207 112.587 498.002-704.754 437.397-537.737-11.827 32.594-744.654 15.526-794.265 19.972-84.82 7.601-1090.514 743.028-1179.146 746.325-15.917.593 94.439 209.272 90.759 178.065-14.53-123.236 483.127-306.895 467.747-485.528-1.182-13.726 402.119 68.144 410.47 55.978 11.633-16.946 32.039-29.524 59.893-29.783 112.027-1.042 349.193-14.511 455.264-10.36 34.205 1.339 62.291 34.624 51.881 63.068z" transform="rotate(-145 914.887 215.665) scale(.5)"/><path fill-opacity="0" stroke="#9DEEC7" stroke-width="6.5" d="M1230.584 803.67C1279.75 769.375 824.5 949.5 897.22 898.474c14.192-9.958 309.445 207.2 331.04 219.606 36.92 21.212 659.74 8.42 696.987 32.488 6.69 4.322 21.337-112.796 13.894-98.96-29.391 54.642-285.89-12.858-330.821 64.717-3.453 5.96-145.156-143.233-152.065-140.645-9.625 3.604-21.59 2.904-33.072-4.979-46.183-31.7-147.183-94.2-189.437-126.32-13.625-10.359-15.583-32.046-3.162-40.71z"/></g><g style="display:block" id="r"><path fill="#DB8D74" d="M521.5 303c-16.5 11-42 12.5-66 13.5s-53.834 22.53-51 52c2.5 26 27.5 43 54.5 43.5 30.012.556 61-2.5 100.5-24s36.5-55.5 23.5-77-45-19-61.5-8z" transform="translate(975 551.5)"/><path fill-opacity="0" stroke="#3D3D3D" stroke-width="2" d="M1496.5 854.5c-16.5 11-42 12.5-66 13.5s-53.834 22.53-51 52c2.5 26 27.5 43 54.5 43.5 30.012.556 61-2.5 100.5-24s36.5-55.5 23.5-77-45-19-61.5-8z"/></g><linearGradient id="bj" spreadMethod="pad" gradientUnits="userSpaceOnUse" x1="475" y1="-110.003" x2="566.067" y2="-38.825"><stop offset="0%" stop-color="#FFA75F"/><stop offset="50%" stop-color="#FFB78B"/><stop offset="100%" stop-color="#FFC7B8"/></linearGradient><linearGradient id="bf" spreadMethod="pad" gradientUnits="userSpaceOnUse" x1="475" y1="-110.003" x2="566.067" y2="-38.825"><stop offset="0%" stop-color="#FFA75F"/><stop offset="50%" stop-color="#FFB78B"/><stop offset="100%" stop-color="#FFC7B8"/></linearGradient><linearGradient id="bb" spreadMethod="pad" gradientUnits="userSpaceOnUse" x1="475" y1="-110.003" x2="566.067" y2="-38.825"><stop offset="0%" stop-color="#FFA75F"/><stop offset="50%" stop-color="#FFB78B"/><stop offset="100%" stop-color="#FFC7B8"/></linearGradient></defs><g clip-path="url(#am)"><g clip-path="url(#au)" style="display:block" transform="matrix(-1 0 0 1 1916 -23.5)"><g style="display:block"><path fill="#58CC02" d="M1230.485 803.743c49.265-34.368 132.015-92.243 204.643-143.202 2.002-1.405 3.906-2.71 5.76-3.878 4.8-3.029 9.266-5.15 14.243-5.77 6.718-.835 14.365 1.067 25.027 7.176 36.967 21.181 70.905 41.494 108.168 65.572 4.658 3.01 6.174 7.172 6.757 10.689.983 5.927-.897 11.436-3.946 17.277-3.012 5.768-6.232 11.558-9.996 18.377C1550.5 825.5 1502 911.25 1472.57 961.824c-4.698 8.072-10.57 15.176-16.747 21.73-4.887 5.184-14.269 14.656-20.551 18.658-11.597 7.387-24.773 4.218-34.089-2.01C1359.001 972 1261.5 906.5 1219.247 875.38c-8.648-6.368-11.976-19.711-10.496-25.73 2.25-9.15 4.91-17.376 8.08-24.263 3.17-6.887 7.327-17.231 13.654-21.644z"/><path stroke="#58CC02" stroke-width="6.5" d="M1230.485 803.743c49.265-34.368 132.015-92.243 204.643-143.202 2.002-1.405 3.906-2.71 5.76-3.878 4.8-3.029 9.266-5.15 14.243-5.77 6.718-.835 14.365 1.067 25.027 7.176 36.967 21.181 70.905 41.494 108.168 65.572 4.658 3.01 6.174 7.172 6.757 10.689.983 5.927-.897 11.436-3.946 17.277-3.012 5.768-6.232 11.558-9.996 18.377C1550.5 825.5 1502 911.25 1472.57 961.824c-4.698 8.072-10.57 15.176-16.747 21.73-4.887 5.184-14.269 14.656-20.551 18.658-11.597 7.387-24.773 4.218-34.089-2.01C1359.001 972 1261.5 906.5 1219.247 875.38c-8.648-6.368-11.976-19.711-10.496-25.73 2.25-9.15 4.91-17.376 8.08-24.263 3.17-6.887 7.327-17.231 13.654-21.644z" fill="none"/><path fill="#FFF" d="M1230.584 803.67c49.166-34.295 131.916-92.17 204.637-143.195 14.192-9.958 23.444-14.802 45.039-2.395 36.92 21.212 70.74 41.42 107.987 65.488 6.69 4.322 10.337 14.203 2.894 28.04-29.391 54.642-73.89 133.142-118.821 210.717-8.262 14.263-29.411 21.917-49.137 8.376-46.183-31.7-147.183-94.2-189.437-126.32-13.625-10.359-15.583-32.046-3.162-40.71z"/><path stroke="#9DEEC7" stroke-width="6.5" d="M1230.584 803.67c49.166-34.295 131.916-92.17 204.637-143.195 14.192-9.958 23.444-14.802 45.039-2.395 36.92 21.212 70.74 41.42 107.987 65.488 6.69 4.322 10.337 14.203 2.894 28.04-29.391 54.642-73.89 133.142-118.821 210.717-8.262 14.263-29.411 21.917-49.137 8.376-46.183-31.7-147.183-94.2-189.437-126.32-13.625-10.359-15.583-32.046-3.162-40.71z" fill="none"/></g><g mask="url(#av)" style="display:block"><g clip-path="url(#aw)"><path fill="#A175F9" d="M313.521 147.186c-2.496-1.13-3.599-4.033-2.476-6.509l35.505-79.229c12.52-26.807 39.038-43.041 67.437-37.268 27.928 5.677 46.166 30.165 46.598 59.638l2.639 83.968c.083 2.628-1.929 4.854-4.581 5.077-10.243.862-36.61.716-68.572-3.881-33.353-4.798-65.058-16.587-76.55-21.796z" transform="rotate(-2.252 15608.74 -24553.453)" style="display:block"/><g style="display:block"><path fill="#A570FF" d="M1338.478 765.348c3.19-6.78 13.646-9.586 20.427-6.396 6.78 3.19 12.618 14.304 9.428 21.085 0 0-7.13 18.497-13.424 29.581-5.534 9.749-13.536 20.834-13.536 20.834-6.3 7.201-11.275 9.692-18.055 6.501-6.781-3.19-9.692-11.273-6.501-18.055 0 0 6.411-13.264 10.719-23.912 4.307-10.648 10.942-29.638 10.942-29.638z"/><path fill="#593F86" d="M1338.478 765.348s8.903-30.232 11.969-56.566l36.247 6.9c-1.21 25.695-17.644 62.8-17.644 62.8-3.062 1.45-13.539 3.857-20.4.629-6.299-2.964-9.387-10.696-10.172-13.763z"/><path fill="#FFC6B7" d="M1388.271 763.665c-1.064 5.441-6.338 8.99-11.779 7.926s-8.99-6.337-7.926-11.778c1.064-5.44 6.338-8.99 11.779-7.926 5.44 1.064 8.99 6.337 7.926 11.778z"/><path fill="#593F86" d="m1370.944 706.02-52.046 20.56c-12.28 4.85-10.727 22.701 2.205 25.36l78.111 16.052c12.971 2.665 21.426-13.215 11.973-22.489l-40.243-39.483z"/><path fill="#FFC6B7" d="M1363.9 736.627c-6.13-5.745-8.753-9.674-13.425-10.587-4.586-.896-9.042 1.49-10.97 5.52 5.006 1.048 17.2 3.571 24.396 5.067z"/></g><path fill="#FFC6B7" d="m450.3 91.6 4.291.88c6.08 1.246 9.998 7.024 8.752 12.907-1.246 5.883-7.186 9.642-13.266 8.396l-4.291-.879c-6.08-1.246-9.999-7.024-8.752-12.907 1.247-5.883 7.186-9.643 13.266-8.397zM416.72 32.314c24.256 5.058 40.846 27.56 38.541 52.277l-5.116 39.92c-2.524 13.181-12.859 21.445-25.152 20.885-12.066-.55-19.554-1.305-35.019-2.624-15.465-1.319-26.56-9.131-26.56-9.131-12.999-2.711-21.339-15.466-18.628-28.489a24.11 24.11 0 0 1 .936-3.302l13.566-37.444c8.519-23.515 32.991-37.189 57.432-32.092z" transform="rotate(1.748 -18003.968 32469.51)" style="display:block"/><path fill="#FFF" d="M412.599 78.212c-6.132 3.04-7.257 9.111-7.45 10.036l-2.078 9.955c-.804 3.852 1.678 7.626 5.543 8.43l7.348 1.528c7.924 1.648 15.683-3.417 17.331-11.313.495-2.371 3.308-16.424 3.308-16.424s-16.193-6.083-24.002-2.212zm-14.702-3.734c3.902 5.915 3.593 9.268 3.279 11.761-.411 3.262-1.961 10.655-1.961 10.655-.863 4.124-4.939 6.767-9.102 5.904l-7.271-1.508c-8.179-1.696-13.434-9.638-11.738-17.74.661-3.158 3.897-16.189 3.897-16.189s19.186 1.492 22.896 7.117z" transform="rotate(-.18 186097.259 -315157.743)" style="display:block"/><g mask="url(#ax)" style="display:block"><path fill="#3D3D3D" d="M1426.558 674.454c-.823 3.773-4.174 5.975-7.687 5.242-3.514-.733-5.722-4.274-5.037-7.895.684-3.622 1.87-9.777 1.87-9.777l12.954 2.034s-1.277 6.622-2.1 10.396zm-32.893-5.74c-.73 4.282-4.174 5.975-7.688 5.242-3.513-.733-5.663-4.5-5.037-7.895.642-3.478.678-2.892.678-2.892l12.511 2.103s.265-.84-.464 3.442z"/></g><g mask="url(#ay)" style="display:block"><path fill="#A570FF" d="m1433.197 660.152-2.502 16.352-70.433-12.716 3.648-17.564 69.287 13.928z"/></g><path fill="#FFC6B7" d="M392.238 134.582a27.84 27.84 0 0 1 .557-7.168c3.172-15.155 18.137-24.871 33.426-21.7 4.08.846 7.06 2.538 9.233 4.487 5.034 4.515-43.121 26.188-43.216 24.381z" transform="rotate(-.18 186097.259 -315157.743)" style="display:block"/><path fill="#EE9583" d="M404.942 119.172c5.947-7.414 11.462-9.776 16.117-6.04.85.682.993 1.938.319 2.804a1.942 1.942 0 0 1-2.757.333c-2.469-1.981-5.872-.523-10.64 5.42a1.942 1.942 0 0 1-2.762.291 2.018 2.018 0 0 1-.277-2.808zm-7.456-4.456c3.258.67 6.439-1.349 7.106-4.511.667-3.162-3.654-11.853-3.654-11.853l-.905.784c-2.011 1.78-6.716 6.163-7.239 8.641-.667 3.162 1.434 6.268 4.692 6.939z" transform="rotate(1.748 -18201.569 32940.21)" style="display:block"/><path fill="#A570FF" d="M317.487 151.331c14.939-40.032 33.041-127.467 89.887-122.518.776.068 3.48.84 3.94 1.587 6.888 11.194-19.433 96.512-23.964 117.906-.547 2.583-2.975 3.862-5.614 3.912-18.096.341-50.013-.575-64.249-.887zM428.486 34.052c17.261 6.726 29.208 23.333 28.949 47.181 0 0-19.174-2.92-24.46-4.266-19.394-4.282-23.64-21.515-23.5-41.578l-6.851-6.354c8.329-.365 18.488 2.143 25.862 5.017z" transform="rotate(1.748 -18003.968 32469.51)" style="display:block"/></g></g><g mask="url(#az)" style="display:block"><g clip-path="url(#aA)"><path fill="#E6A000" d="M0-59.292c32.723 0 59.292 26.569 59.292 59.292S32.723 59.292 0 59.292-59.292 32.723-59.292 0-32.723-59.292 0-59.292z" transform="matrix(.38973 .12663 -.0618 .19021 1493.225 685.26)" style="display:block"/><g style="display:block"><path fill="#FFC700" d="M1479.054 669.314c9.753-2.106 24.531 2.008 33.007 9.188 8.475 7.18 7.44 14.708-2.315 16.814-9.753 2.106-24.531-2.007-33.007-9.188-8.475-7.18-7.439-14.708 2.315-16.814z"/><path fill="#FFE700" d="M1506.04 676.633a28.068 28.068 0 0 1 3.133 2.286c1.821 1.542 3.122 3.104 3.912 4.604.165.313-.197.356-.652.456-4.6 1.008-22.786 4.933-25.267 5.457-.34.072-.928.213-1.803-.188-2.292-1.052-4.25-2.435-5.976-3.898a19.501 19.501 0 0 1-2.538-2.554c-.142-.175-.415-.45.61-.672 4.43-.957 20.728-4.438 26.91-5.773.817-.177 1.297.045 1.672.282zm-24.7-5.462c5.383-1.163 12.583-.078 18.92 2.509.45.184 1.581.769.25 1.082-1.333.313-21.493 4.574-23.888 5.091-1.403.303-1.725-.438-1.795-.671-1.11-3.721 1.123-6.847 6.512-8.011z"/></g><path fill="#E6A000" d="M0-59.292c32.723 0 59.292 26.569 59.292 59.292S32.723 59.292 0 59.292-59.292 32.723-59.292 0-32.723-59.292 0-59.292z" transform="matrix(.4813 .24524 -.13166 .2584 1514.025 734.632)" style="display:block"/><g style="display:block"><path fill="#FFC700" d="M1499.117 709.767c13.434-1.32 31.865 7.007 41.167 18.597 9.302 11.59 5.953 22.057-7.48 23.377-13.434 1.32-31.865-7.007-41.167-18.597-9.302-11.59-5.953-22.057 7.48-23.377z"/><path fill="#FFE700" d="M1532.827 724.7a34.675 34.675 0 0 1 3.535 3.763c1.998 2.49 3.304 4.919 3.953 7.173.136.47-.354.47-.98.534-6.34.643-31.386 3.102-34.8 3.422-.468.043-1.283.143-2.332-.573-2.75-1.876-4.97-4.164-6.865-6.525-1.101-1.373-1.992-2.727-2.679-4.043-.142-.271-.43-.707.982-.846 6.102-.6 28.537-2.752 37.053-3.588 1.125-.111 1.7.283 2.133.682zm-31.18-11.92c7.415-.728 16.636 2.03 24.322 6.762.546.337 1.887 1.356.046 1.572-1.841.217-29.584 2.815-32.882 3.14-1.932.19-2.162-.914-2.193-1.255-.487-5.449 3.284-9.489 10.706-10.218z"/></g><path fill="#E6A000" d="M0-59.292c32.723 0 59.292 26.569 59.292 59.292S32.723 59.292 0 59.292-59.292 32.723-59.292 0-32.723-59.292 0-59.292z" transform="matrix(.6486 .38971 -.22476 .37406 1500.135 794.898)" style="display:block"/><g style="display:block"><path fill="#FFC700" d="M1482.475 757.503c19.29-1.18 44.282 12.171 55.821 29.82 11.54 17.65 5.256 32.914-14.034 34.095-19.29 1.18-44.282-12.171-55.821-29.82-11.54-17.65-5.256-32.914 14.034-34.095z"/><path fill="#FFE700" d="M1528.227 781.484a46.427 46.427 0 0 1 4.478 5.761c2.48 3.791 3.983 7.453 4.578 10.82.125.703-.572.674-1.472.732-9.107.587-45.072 2.785-49.973 3.061-.67.038-1.843.139-3.23-.98-3.636-2.926-6.46-6.434-8.81-10.029-1.367-2.09-2.437-4.14-3.222-6.123-.162-.409-.509-1.069 1.52-1.193 8.761-.536 40.97-2.43 53.198-3.18 1.616-.098 2.376.517 2.933 1.131zm-42.595-19.386c10.65-.651 23.358 3.948 33.597 11.378.727.528 2.484 2.11-.165 2.324-2.648.214-42.467 2.464-47.203 2.754-2.775.17-2.942-1.473-2.935-1.979.099-8.074 6.049-13.825 16.706-14.477z"/></g><path fill="#E6A000" d="M0-59.292c32.723 0 59.292 26.569 59.292 59.292S32.723 59.292 0 59.292-59.292 32.723-59.292 0-32.723-59.292 0-59.292z" transform="matrix(.68536 .4799 -.32116 .45866 1420.606 831.336)" style="display:block"/><g style="display:block"><path fill="#FFC700" d="M1406.454 784.874c22.482-1.404 49.164 15.042 59.597 36.735 10.432 21.692.663 40.415-21.819 41.82-22.482 1.404-49.164-15.043-59.597-36.735-10.432-21.692-.663-40.416 21.819-41.82z"/><path fill="#FFE700" d="M1455.376 814.418a47.284 47.284 0 0 1 4.228 7.082c2.24 4.66 3.377 9.157 3.511 13.292.028.863-.772.826-1.822.895-10.618.7-52.534 3.315-58.242 3.643-.78.044-2.152.165-3.572-1.21-3.72-3.602-6.406-7.914-8.531-12.332-1.236-2.57-2.135-5.088-2.716-7.525-.12-.502-.412-1.313 1.952-1.46 10.21-.638 47.738-2.89 61.989-3.78 1.883-.118 2.66.639 3.203 1.395zm-46.03-23.896c12.412-.776 26.34 4.9 36.949 14.044.754.65 2.524 2.596-.572 2.852-3.095.257-49.473 2.927-54.992 3.272-3.235.202-3.157-1.815-3.067-2.436 1.442-9.91 9.261-16.956 21.683-17.732z"/></g><path fill="#E6A000" d="M0-59.292c32.723 0 59.292 26.569 59.292 59.292S32.723 59.292 0 59.292-59.292 32.723-59.292 0-32.723-59.292 0-59.292z" transform="matrix(.81915 .57358 -.43018 .61436 1303.57 843.462)" style="display:block"/><g style="display:block"><path fill="#FFC700" d="M1289.189 784.783c28.033-3.338 60.076 16.103 71.57 43.422 11.493 27.32-1.915 52.173-29.948 55.511-28.033 3.339-60.076-16.102-71.57-43.422-11.493-27.32 1.915-52.173 29.948-55.511z"/><path fill="#FFE700" d="M1347.981 819.638a53.725 53.725 0 0 1 4.773 8.863c2.47 5.869 3.577 11.603 3.463 16.936-.023 1.113-1.016 1.12-2.325 1.28-13.243 1.624-65.508 7.844-72.623 8.654-.973.11-2.685.36-4.357-1.32-4.378-4.402-7.424-9.79-9.765-15.355-1.362-3.236-2.308-6.43-2.865-9.538-.115-.64-.423-1.669 2.524-2.02 12.733-1.516 59.52-6.969 77.29-9.085 2.347-.28 3.261.645 3.885 1.585zm-55.58-27.754c15.475-1.843 32.399 4.545 44.963 15.641.892.788 2.96 3.183-.904 3.724-3.864.542-61.677 7.135-68.56 7.954-4.032.48-3.8-2.13-3.645-2.939 2.463-12.903 12.658-22.536 28.146-24.38z"/></g></g></g><path stroke="#9DEEC7" stroke-width="13" d="M396.003 355.089c-84.82 7.601-163.41 13.29-252.041 16.588-15.917.592-33.228-11.412-36.908-42.619-14.53-123.235-31.678-302.891-47.058-481.524-2.828-32.845 23.041-69.646 70.892-70.091 112.027-1.042 349.193-14.511 455.264-10.36" fill="none" transform="rotate(-145 914.887 215.665) scale(.5)" style="display:block"/></g><g clip-path="url(#aQ)" style="display:block" transform="matrix(-1 0 0 1 1976 -43.5)"><g style="display:block"><path stroke-linecap="round" stroke-miterlimit="10" stroke="#CC348D" stroke-width="23" d="M1744.377 392.506c-3.152-14.83 27.717-19.141 47.52-4.185" fill="none"/><path fill="#C6775C" d="M1759.209 389.353c1.741 8.191-3.488 16.243-11.68 17.984-8.19 1.74-16.241-3.488-17.982-11.679-1.741-8.19 3.487-16.243 11.678-17.984 8.19-1.74 16.243 3.488 17.984 11.68z"/><path fill="#5EC6FF" d="M1782.789 417.858c-1.835 9.722-16.449 15.125-32.641 12.069-16.193-3.056-27.83-13.416-25.996-23.138 1.835-9.722 15.2-27.842 34.916-24.12 19.858 3.748 25.555 25.467 23.72 35.189z"/><path fill="#0084C2" d="M1782.789 417.858c-1.835 9.722-16.449 15.125-32.641 12.069-16.193-3.056-27.83-13.416-25.996-23.138 1.835-9.722 16.449-15.125 32.64-12.069 16.193 3.056 27.831 13.416 25.997 23.138z"/><path fill="#FFCC76" d="M1756.793 394.72c-9.185-1.734-17.86-.743-23.984 2.212.476 5.793-.743 11.227-.951 12.993-.018.12-.084.234-.103.356-.96 6.47 2.425 12.65 8.744 14.14 4.578 1.08 9.152-.686 11.897-4.139a13.12 13.12 0 0 0 6.55 3.776c7.091 1.671 14.194-2.72 15.866-9.81.812-3.446 2.033-7.07 3.07-9.182-4.667-4.776-12.186-8.665-21.09-10.346z"/></g><g mask="url(#aR)" style="display:block"><path stroke-linecap="round" stroke-miterlimit="10" stroke="#FFCC76" stroke-width="4.148" d="M1796.464 314.074c-14.868 6.274-35.013 29.363-25.842 34.024 9.171 4.66 18.747-25.55 42.927-19.173m-18.886 8.892c-11.468 6.26-19.47 20.407-30.798 40.855m32.799-35.02c-5.07 5.14-7.714 7.745-13.776 17.358-6.063 9.612-13.723 18.939-17.115 31.26" fill="none"/></g><path fill="#0084C2" d="M732.862-124.382c4.759-25.473 29.266-42.264 54.739-37.505s42.265 29.265 37.506 54.738-29.266 42.265-54.739 37.506-42.265-29.266-37.506-54.739z" transform="rotate(6 -4290.019 9963.866)" style="display:block"/><g mask="url(#aS)" style="display:block"><path fill="#006AAD" d="M1847.06 507.416c-17.132-1.904-34.093-4.885-48.915-21.75l-6.978.273c17.732 21.54 38.311 25.067 49.797 25.769a47.202 47.202 0 0 0 6.097-4.292z"/><path fill="#C6775C" d="M1788.287 414.194c4.847-15.9 21.619-24.904 37.548-20.16 16.003 4.765 25.114 21.6 20.349 37.604l-10.4 34.921c-1.183 3.973-4.135 7.184-8.01 8.655-15.967 6.058-28.462 10.2-33.178 11.725a3.209 3.209 0 0 1-3.453-.97c-7.924-9.371-12.518-20-14.553-25.503-.896-2.424-.864-5.063-.11-7.535l11.807-38.737z"/><path stroke-linecap="round" stroke="#FFF" stroke-width="20.813" d="m1786.285 455.994 2.813-8.351m19.832 15.634 1.816-6.104" fill="none"/><path stroke-linecap="round" stroke="#3D3D3D" stroke-width="9.4" d="M1807.342 460.604s-1.172 2.466-1.436 4.984m-18.343-12.707s-.597 3.267-2.041 5.493" fill="none"/><path fill="#FFF" d="M1782.01 456.152c1.693.918 2.47 3.554 1.427 5.203-4.326 7.154-8.933-8.035-1.427-5.203zm19.25 8.168c2.027.64 3.311 2.658 2.435 4.814-2.778 4.607-6.22-4.315-2.435-4.814z"/><path fill="#C6775C" d="M1789.876 445.131a6.295 6.295 0 1 1 12.007 3.775 6.295 6.295 0 0 1-12.007-3.775z"/></g><path stroke-linecap="round" stroke="#3D3D3D" stroke-width="46.998" d="M806.508-160.321c-17.756 5.031-37.78.251-40.643-7.859" fill="none" transform="translate(1028.09 585.33)" style="display:block"/><path fill="#FFF" d="m756.151-159.828.792-1.802a5.805 5.805 0 0 1 10.63 4.672l-.792 1.802a5.805 5.805 0 0 1-10.63-4.672z" transform="translate(1028.214 585.455)" style="display:block"/><path fill="#CC348D" d="M745.232-224.137c-.304-28.44 22.505-51.741 50.945-52.045 28.44-.304 51.741 22.506 52.045 50.946.304 28.44-22.505 51.74-50.945 52.044-28.44.304-51.741-22.505-52.045-50.945z" transform="rotate(-6 6923.643 -9693.814)" style="display:block"/><path stroke-linecap="round" stroke-linejoin="round" stroke="#CC348D" stroke-width="23" d="M831.437-200.87s8.443 3.7 7.308 8.731c-2.734 12.125-24.35 15.5-24.35 15.5" fill="none" transform="rotate(-6 6923.643 -9693.814)" style="display:block"/><g mask="url(#aT)" style="display:block"><path fill="#0084C2" d="M1754.098 361.036c.971-24.929 15.359-54.357 56.918-59.045 41.56-4.688 81.412 14.673 75.643 40.318-4.492 19.971-24.185 31.467-70.758 32.451-44.425.94-61.906-11.094-61.803-13.724z"/><path stroke="#00448E" stroke-width="11" d="M1754.098 361.036c.971-24.929 15.359-54.357 56.918-59.045 41.56-4.688 81.412 14.673 75.643 40.318-4.492 19.971-24.185 31.467-70.758 32.451-44.425.94-61.906-11.094-61.803-13.724z" fill="none"/></g><g style="display:block"><path stroke-linecap="round" stroke-linejoin="round" stroke="#0084C2" stroke-width="20" d="M1811.84 325.786s-35.404-8.892-46.57-16.516c1.307-12.121 17.708-29.886 25.729-41.066" fill="none"/><path stroke-linecap="round" stroke-linejoin="round" stroke="#CC348D" stroke-width="14" d="M1811.316 258.523c-2.695-5.366-7.83-11.277-11.98-13.792" fill="none"/></g><g style="display:block"><path stroke-linecap="round" stroke-linejoin="round" stroke="#0084C2" stroke-width="20" d="M1812.072 325.693s-55.075 10.65-94.565-23.948" fill="none"/><path stroke-linecap="round" stroke-linejoin="round" stroke="#CC348D" stroke-width="14" d="M1704.21 281.616c-2.83 1.952-9.904 7.752-14.144 12.649" fill="none"/></g><g style="display:block"><path stroke-linecap="round" stroke-linejoin="round" stroke="#DAAF83" stroke-width="5" d="m1873.799 418.97-59.608 5.58m57.537 3.514-56.873 2.094" fill="none"/><path stroke-linecap="round" stroke-linejoin="round" stroke="#C6775C" stroke-width="9" d="m1841.811 423.03-8.414 8.274" fill="none"/><path fill="#C6775C" d="m1844.202 427.067 4.19-4.227a8.535 8.535 0 0 0-.053-12.07l-3.74-3.707a8.534 8.534 0 0 0-12.07.053l-4.19 4.228a8.534 8.534 0 0 0 .054 12.07l3.739 3.706a8.536 8.536 0 0 0 12.07-.053z"/></g></g><g clip-path="url(#bc)" style="display:block" transform="matrix(-1 0 0 1 1916 -23.5)"><g style="display:block"><path stroke-linecap="round" stroke-linejoin="round" stroke="#FFC6B7" stroke-width="12" d="M1458.806 597.461c-.442-4.65-7.236-8.911-12.637-11.701m-8.28 7.709c6.957 1.43 14.896 3.926 18.936 7.573m-19.767 6.047c10.312-2.016 16.941.879 20.946 3.089m-4.6 12.75s5.469-8.115 13.553-13.406" fill="none"/><path stroke-linecap="round" stroke-linejoin="round" stroke="#FFC6B7" stroke-width="36" d="M1487.594 595.351c-10.247 1.518-15.034 2.42-23.714 4.918" fill="none"/><path stroke-linecap="round" stroke-linejoin="round" stroke="#33E3FF" stroke-width="36" d="M1505.648 593.312c-8.98.092-20.233 2.173-29.067 4.048" fill="none"/></g><path fill="#33E3FF" d="M630.506-116.08c8.673-29.178-31.78-60.675-60.873-45.286-16.257 6.138-41.193 24.558-41.193 24.558-12.752 8.73 83.877 96.155 89.323 70.667 0 0 7.002-36.31 12.743-49.939z" transform="rotate(-4.249 8812.596 -12915.201)" style="display:block"/><path stroke-linecap="round" stroke="#393939" stroke-width="27" d="m683.25 34.5 4.25 3.5" fill="none" transform="rotate(-16.749 2972.878 -2992.982)" style="display:block"/><path stroke-linecap="round" stroke-linejoin="round" stroke="#393939" stroke-width="23" d="m613.75 94-8.25 3.75" fill="none" transform="rotate(-20.419 2605.09 -2353.807)" style="display:block"/><path fill="#FFC7B8" d="M552.811-154.957c-14.873-8.982-34.962-11.237-52.179-1.891l-28.256 15.339a51.11 51.11 0 0 0-25.616 34.316l-7.98 37.63C434.57-49.714 440-30 458.986-17.428 477.972-4.856 510.5 12 528.501 43.852c6.897 12.204 42.974 11.603 54.934 7.15l38.691-9.376A38.335 38.335 0 0 0 651.93 8.839l6.319-51.72c-.568-6.318-6.973-19.296-11.519-26.102C621-107.5 590-132.5 552.811-154.957z" transform="rotate(-6.749 5935.156 -8054.843)" style="display:block"/><path fill="#EE9583" d="M523.147-6.062c2.236 3.145 5.699 3.51 8.324 1.644 2.625-1.866 3.418-5.255 1.182-8.401-2.236-3.145-9.483-4.798-10.202-4.287-.718.51-1.54 7.899.696 11.044z" transform="rotate(-6.749 5931.19 -8053.409)" style="display:block"/><g style="display:block"><path fill="#FFF" d="M1485.221 553.101c-7.94-4.57-20.09-2.932-25.802 3.478-4.717 5.294-3.343 12.057 3.216 15.831l9.83 5.657c7.941 4.57 20.09 2.931 25.802-3.478 4.717-5.294 3.344-12.058-3.215-15.832l-9.83-5.656zm30.288-23.708c-7.91-4.552-19.096-2.364-24.76 4.842-5.465 6.954-3.737 16.006 3.898 20.399l8.992 5.174c7.91 4.552 19.098 2.363 24.76-4.841 5.467-6.956 3.738-16.007-3.898-20.4l-8.992-5.174z"/><path fill="#FFC7B8" d="M1530.77 538.565c-5.254 4.53-11.111 17.54-12.494 26.873l16.417-14.155c.882-6.126 1.33-17.246-3.923-12.718z"/><path fill="#EE9583" d="M1527.152 557.43a2.223 2.223 0 0 0-1.76 2.603c.43 2.223.459 4.409-.145 6.495-.598 2.064-1.857 4.172-4.221 6.2a2.219 2.219 0 0 0-.239 3.13 2.22 2.22 0 0 0 3.131.24c2.967-2.545 4.735-5.373 5.594-8.334.851-2.937.764-5.865.241-8.574a2.221 2.221 0 0 0-2.601-1.76z"/><path fill="#4B4B4B" d="M1501.525 542.3a4.246 4.246 0 0 0 2.111 3.172c2.02 1.163 4.577.506 5.712-1.465.115-.201.21-.406.288-.617l4.967 2.719c3.559 1.947 4.407 6.104 1.899 9.296-2.52 3.205-7.474 4.221-11.05 2.264l-6.04-3.305c-3.558-1.947-4.408-6.104-1.9-9.295 1.022-1.301 2.444-2.24 4.013-2.769zm-15.31 15.916c.17.082.337.172.501.267l5.206 2.994c3.842 2.21 4.687 6.16 1.987 9.287-2.35 2.721-7.472 3.44-10.817 1.517l-7.479-4.304c-3.19-1.833-3.892-5.11-1.65-7.706.998-1.156 2.419-2.006 4.013-2.514a4.503 4.503 0 0 0 2.106 2.653c2.079 1.196 4.66.61 5.765-1.31a3.75 3.75 0 0 0 .367-.884z"/></g><g mask="url(#bd)" style="display:block"><g clip-path="url(#be)" transform="rotate(-.686 1781.15 540.01) scale(1.00759)"><g style="display:block"><path fill="#FFC7B8" d="M1531.072 472.95c5.547 1.538 10.722-2.436 11.558-8.872.835-6.437-2.985-12.9-8.532-14.438-5.547-1.538-10.722 2.436-11.557 8.872-.836 6.437 2.985 12.9 8.531 14.438z"/><path fill="#0084C2" d="M1476.51 610.578s56.633 59.035 75.738 52.288l84.852-53.299c15.31-5.119 16.846-112.947 8.034-122.726l-46.156-33.193-.192-.139-6.05-4.349-7.1 111.687-109.126 49.731z"/><path fill="#33E3FF" d="M1599.227 458.011c-6.193-5.901-32.26-23.432-32.26-23.432a89.37 89.37 0 0 1 2.122 5.235c15.96 43.123 4.178 106.142 2.463 109.162-15.069 26.531-97.039 53.239-102.455 51.97l17.197 15.416c27.382 2.193 90.182-24.41 102.765-40.754 10.975-14.252 13.347-94.227 10.168-117.597z"/></g><path fill="url(#bf)" d="M542.287-73.808a20.443 20.443 0 0 0-21.744-1.686l-66.346 34.981c-4.69 2.473-5.503 8.833-1.52 12.333 4.619 4.057 18.803 15.086 20.93 16.441 2.539 1.618 3.641 4.492 3.329 7.164L455.999 7.558C439.513-4.27 412.084-46.23 416.293-66.078c0 0 3.246-69.461 16.083-76.429 0 0 91.517-46.369 107.436-34.95l29.674 16.915 1.147.654-.456 92.437a8.424 8.424 0 0 1-7.201 8.168c-.631.092-20.689-14.525-20.689-14.525z" transform="rotate(-6.1 6395.181 -8836.617)" style="display:block"/></g></g><path fill="#FF9500" d="M470.828-93.522c12.987-.062 20.47-10.85 20.41-24.113-.06-13.265-7.641-23.98-20.627-23.918-12.986.061-21.667 10.854-21.607 24.118.06 13.264 8.838 23.974 21.824 23.913zm-4.304 35.766c14.663-.861 25.799-13.965 24.87-29.266-.928-15.304-13.568-27.01-28.232-26.148-14.663.862-25.799 13.965-24.87 29.266.928 15.303 13.569 27.01 28.232 26.148z" transform="rotate(21.251 -624.71 2792.53)" style="display:block"/><path fill="#33E3FF" d="M637.81-65.136C633.75-56 626.831-54.6 622.786-55.983c-5.465-1.15-9.63-7.729-9.02-16.257 1.234-17.26 7.984-33.01 13.266-43.535 4.773-9.512 15.718-11.975 22.54-8.794 6.779 3.161 12.82 11.1 7.698 20.625-6.02 11.194-15.4 29.672-19.46 38.808z" transform="rotate(-4.249 8869.121 -12934.787)" style="display:block"/><g style="display:block"><path fill="#FFC6B7" d="M1632.823 453.365c-5.695-8.065-15.901-10.669-25.254-4.451-8.243 5.48-11.182 15.872-4.983 24.33 5.657 7.715 15.917 10.341 25.075 4.202 9.419-6.305 10.857-16.016 5.162-24.081z"/><path stroke-linecap="round" stroke="#EE9583" stroke-width="3.796" d="M1615.84 458.564c3.352 1.529 6.548 5.29 6.4 7.87" fill="none"/><path stroke-linecap="round" stroke-linejoin="round" stroke="#FFC6B7" stroke-width="12" d="M1609.36 453.253c-.036-4.229-1.526-8.057-1.228-12.016m18.944-5.245c-5.484 2.35-9.976 9.73-9.773 13.337m21.284-6.585c-3.923 1.86-13.055 7.381-13.004 13.423m17.212-.376c-4.537-.616-10.336 3.73-12.208 8.587" fill="none"/></g></g><g clip-path="url(#bn)" style="display:block" transform="matrix(-1 0 0 1 1976 -43.5)"><path fill="#58CC02" d="M303.202-41.464c15.252 94.999-16.572 140.035-80.655 155.537-84.448 20.428-144.155-35.09-168.05-85.71C36.399-9.976 30.494-46.844 30.544-89.308c-.035-43.92 11.995-87.97 50.545-103.237 17.554-6.951 35.648-7.557 49.027-1.575 20.734 9.272 29.282 14.243 36.989 18.303 4.225 2.226 127.273 79.39 136.097 134.353zm15-4c15.252 94.999-31.572 144.035-95.655 159.537-84.448 20.428-134.794-43.146-151.05-96.71-55.497-182.863 87.9-197.24 95.608-193.18a21.638 21.638 0 0 0 13.782 2.192c13.91-2.42 30.604-12.167 54.477-20.62 30.603-10.835 70.018 5.976 71.889 45.224 0 0 2.125 48.594 10.949 103.557z" transform="rotate(-2.61 14172.762 -22524.002)" style="display:block"/><path fill="#58CC02" d="M194.4-10.921c41.197 33.255 100.112 36.257 145.734 6.363 45.621-29.893 66.603-85.246 52.867-136.495-2.857-10.667-15.283-15.388-24.539-9.323L195.78-37.227c-9.256 6.065-9.954 19.384-1.38 26.306z" transform="rotate(15.584 -1366.699 4051.728)" style="display:block"/><path fill="#58CC02" d="M198.976.515c-26.37 45.909-80.206 70.027-133.554 58.669C12.074 47.826-27.518 3.817-33.258-48.93c-1.195-10.977 8.679-19.874 19.504-17.569L188.17-23.511C198.993-21.206 204.464-9.04 198.976.515z" transform="rotate(-20.805 2250.792 -2539.633)" style="display:block"/><path stroke-linecap="round" stroke-linejoin="round" stroke="#F49000" stroke-width="35" d="M256.25 102.5 260 74.75" fill="none" transform="rotate(7.109 -4023.092 8828.114)" style="display:block"/><path stroke-linecap="round" stroke-linejoin="round" stroke="#F49000" stroke-width="35" d="m138 147-27-7.75" fill="none" transform="rotate(16.829 -1373.002 3945.934)" style="display:block"/><g mask="url(#bp)" style="display:block"><path fill="#89E219" d="M1235.453 635.406c-1.147 8.759-7.92 16.03-16.878 17.859-8.958 1.83-17.873-2.235-22.12-9.892-.882-1.593.075-3.61 1.892-3.98l34.863-4.947c1.818-.356 2.481-.862 2.243.96zm-58.55 11.741c-2.316 8.506-10.002 14.714-19.118 15.216-9.117.503-17.396-4.827-20.567-13.03-.66-1.707.56-3.562 2.41-3.664l34.507-1.902c1.85-.101 3.25 1.61 2.769 3.38zm35.608 20.498c-1.52 8.352-8.6 15.022-17.628 16.375-9.029 1.351-17.76-2.95-21.675-10.487-.814-1.567.23-3.46 2.061-3.733l33.211-5.849c1.832-.286 4.348 1.957 4.031 3.694zm23.37-68.343c-22.285 1.168-42.174-11.061-51.811-29.654-8.183.399-14.114.676-17.785.86-6.522.327-11.863.6-16.014.819-5.738 19.445-18.617 33.172-36.083 34.39-20.577 1.437-41-22.564-43.247-52.723-1.696-22.77-1.89-34.01-.198-46.242 1.815-13.125 6.773-22.558 14.277-29.355.5-11.898 9.809-22.207 14.204-22.309 2.473-.057 2.113.889 1.847 14.216 4.429-17.782 13.74-23.246 17.836-26.295 5.13-3.817 11.163-5.693 11.392 2.53.11 3.912 3.009 46.77 27.792 47.742 2.34.091 3.84.099 6.791-.186 15.386-1.486 44.615-33.856 55.997-47.176 7.082-8.288 11.6-6.713 13.35-4.07 3.98 6.006 5.41 12.293 4.497 18.673l9.51-11.893c1.872-2.329 5.47-2.18 7.119.305 4.287 6.466 6.049 14.11 5.282 21.589 14.764 9.176 24.944 25.184 25.93 43.853l1.425 27.076c1.598 30.353-21.732 56.26-52.11 57.85z"/></g><g style="display:block"><path fill="#F49000" d="M1190.97 568.277c-.557-10.607-9.608-18.752-20.215-18.194-10.01.526-17.935 8.651-18.213 18.671l-.195 25.813c-.332 11.935 9.591 21.614 21.513 20.986 11.277-.592 19.938-10.215 19.345-21.492l-2.235-25.784z"/><path fill="#B16900" d="M1184.15 570.232c.26-8.204-6.551-14.875-14.747-14.444-7.274.383-13.043 6.273-13.274 13.553l-.28 24.696c-.261 8.204 6.55 14.874 14.747 14.443 7.274-.383 13.042-6.272 13.274-13.553l.28-24.695z"/><path fill="#FFB8D1" d="M1184.414 577.975c-.168.005-.338.011-.506.02-12.635.665-22.34 11.447-21.675 24.082.083 1.583.326 3.122.71 4.599a13.93 13.93 0 0 0 7.658 1.804c7.274-.383 13.042-6.272 13.274-13.553l.539-16.952z"/><path fill="#FFC200" d="M1139.556 571.682c-.137.74.296 1.46 1.003 1.72l10.21.41 41.276-3.435c.925-.153 1.527-1.063 1.247-1.957-3.7-11.79-15.006-20.676-27.916-19.998-13.065.687-23.545 10.935-25.82 23.26z"/><path fill="#FFDE00" d="M1169.126 559.969c2.093.818 4.394-.289 5.167-2.37.772-2.081-.242-4.54-2.37-5.167-4.156-1.225-9.282-1.189-13.39.61-2.033.892-3.01 3.215-2.151 5.262.859 2.046 3.2 2.976 5.261 2.152 1.768-.708 5.39-1.306 7.483-.487z"/></g><g style="display:block"><path fill="#FFF" d="M1269.486 539.319c1.112 21.13-15.118 39.16-36.249 40.272-21.13 1.111-39.16-15.117-40.272-36.248l-1.132-21.522c-1.111-21.13 15.118-39.16 36.249-40.272 21.13-1.111 39.16 15.117 40.272 36.248l1.132 21.522zm-129.543 6.812c1.11 21.13-11.123 38.952-27.328 39.803-16.201.852-30.24-15.586-31.35-36.717l-1.133-21.522c-1.111-21.13 11.125-38.95 27.327-39.803 16.204-.851 30.24 15.587 31.351 36.718l1.133 21.52z"/><path fill="#4B4B4B" d="M1105.225 542.464c.71 9.894 7.632 17.458 15.445 16.897 7.823-.56 13.596-9.032 12.885-18.925l-1.374-19.107c-12.533 6.417-20.278-10.482-11.757-16.71-.658-.273-2.568-.402-3.689-.188-9.64 1.872-13.628 11.472-12.567 23.307.853 9.485 1.057 14.726 1.057 14.726zm95.073-4.524c.28 9.911 8.542 17.723 18.453 17.452 9.912-.28 17.723-8.541 17.453-18.453l-.534-19.153c-13.537 5.293-19.082-9.665-14.884-17.204a18.32 18.32 0 0 0-3.57-.248 17.86 17.86 0 0 0-5.454 1.003c-9.84 4.03-12.036 15.01-11.88 21.84.166 6.831.416 14.763.416 14.763z"/><path fill="#8EDF00" d="M1107.72 480.544c-25.99 1.75-30.302 15.21-31.37 23.308-2.25 17.063 2.28-.979 2.28-.979 16.88-25.528 47.945-24.294 65.06 12.55 4.35-20.37-.375 1.17-2.523-13.478-2.148-14.647-14.929-22.649-33.448-21.401zm-20.362 107.564c6.083 2.978 8.312 7.239 22.868 10.16 14.557 2.92 10.915 2.956 13.163 3.32-3.74-2.121-29.7-10.251-36.031-13.48zm141.218-111.1c-30.948-.457-41.26 20.28-40.81 37.51.451 17.232.365 1.256.365 1.256 7.933-48.926 60.43-48.164 81.398-16.964-.084-8.049 2.656 21.623 1.128 6.83-1.528-14.794-20.03-28.305-42.081-28.632zm-5.504 115.102c-12.625-1.939-16.621-2.709 7.287 1.89 19.25 3.704 31.845-5.07 40.969-16.175-5.6 6.373-25.898 15.771-48.256 14.285z"/></g></g><g clip-path="url(#bC)" style="display:block" transform="matrix(-1 0 0 1 1976 -43.5)"><path fill="#FFCBA3" d="M219.178-328.397c5.997 0 10.857 4.914 10.857 10.975 0 6.062-4.86 10.976-10.857 10.976-5.997 0-10.858-4.914-10.858-10.976 0-6.061 4.861-10.975 10.858-10.975z" transform="rotate(.777 -34866.229 74457.845)" style="display:block"/><path fill="#FFB100" d="M231.91-320.48c-6.458-4.413-11.63-2.23-14.435 1.294-2.805 3.523-3.574 10.076 2.416 14.5 5.99 4.423 18.857 17.45 27.445 27.712 3.295 3.938 10.776 5.649 16.223.539 5.448-5.11 3.288-12.574.299-16.654-6.045-8.248-25.492-22.98-31.949-27.392z" transform="rotate(.777 -34866.478 74494.723)" style="display:block"/><path fill="#3D3D3D" d="M173.446-316.278c0 9.562-7.752 17.314-17.314 17.314-9.562 0-17.314-7.752-17.314-17.314 0-9.562 7.752-17.315 17.314-17.315 9.562 0 17.314 7.753 17.314 17.315zm-19.833-8.84c-13.51-11.936-14.787-32.567-2.85-46.078l22.652-26.694c11.937-13.512 32.567-14.788 46.08-2.85 14.325 12.657 14.76 34.86.938 48.067l-.997.596a94.763 94.763 0 0 0-10.584 11.98l-7.422 9.988c-11.403 15.344-33.49 17.649-47.817 4.992z" transform="rotate(.777 -42956.737 76468.323)" style="display:block"/><path fill="#E89665" d="M170.119-403.653c2.087.944 3.005 3.418 2.051 5.527-.954 2.109-6.986 5.386-6.986 5.386s-1.522-6.695-.568-8.804c.954-2.108 3.417-3.052 5.503-2.109z" transform="rotate(.79 -42012.738 75030.962)" style="display:block"/><path fill="#FFCBA3" d="M219.585-404.105c-21.544-12.439-49.093-5.057-61.532 16.488-12.439 21.545-5.057 49.093 16.487 61.532l29.192 16.854 45.045-78.02-29.192-16.854z" transform="rotate(.777 -42926.565 76368.614)" style="display:block"/><g style="display:block"><path fill="#FFB100" d="M1225.226 207.037c-20.512 27.19-22.154 90.945 46.481 114.825l35.984-57.013 34.431-61.464c-52.462-29.788-90.859-30.862-116.896 3.652z"/><path fill="#FFF" d="M1262.503 202.283c2.068 2.097 1.788 5.725-.626 8.106-2.413 2.38-6.045 2.61-8.113.514-2.067-2.097-1.787-5.724.626-8.105 2.414-2.38 6.045-2.611 8.113-.515zm-32.792-8.54c24.923 14.244 47.465-7.564 37.459-12.466-3.966.189-9.562 2.083-14.326 3.59-9.7-1.15-18.056 3.682-23.133 8.877zm-15.6 30.595c19.011 10.514 43.977-20.514 23.325-32.386-5.07 2.995-18.734 14.936-23.326 32.386z"/><path fill="#FF9500" d="M1293.108 255.604c-19.509 32.757-31.168 60.49-21.826 66.054 9.343 5.564 29.762-17.708 49.271-50.464 19.509-32.757 30.72-62.594 21.377-68.158s-29.313 19.812-48.822 52.568zm-40.214-70.74c16.82 1.128 40.446 10.005 56.564 18.434a7.99 7.99 0 0 0 8.163-.467c2.9-1.946 5.418-5.706 9.867-7.286-30.363-14.893-54.826-18.532-74.594-10.682zm-35.241 36.082c-10.38 26.913-6.198 67.911 33.686 91.566-3.858-14.816 11.821-42.918 17.692-56.648 1.63-3.813.092-8.238-3.56-10.2-9.918-5.325-32.673-18.731-47.818-24.718z"/></g><path fill="#FFCBA3" d="M208.585-408.855c-7.835-3.645-36.835-2.645-50.532 21.238-12.377 21.58-5.057 49.093 16.487 61.532 0 0 2.21 1.585 4.192 2.604C165-376.5 201.25-403.25 213.777-407.001c-1.277-.999-5.192-1.854-5.192-1.854z" transform="rotate(.777 -42956.487 76431.45)" style="display:block"/><g style="display:block"><path fill="#9F9F9F" d="M1190.911 210.804c-6.035 16.832-1.915 36.571 11.396 48.723 4.25-18.074 2.779-38.775-11.396-48.723z"/><path fill="#B23232" d="m1221.271 200.524 1.14 3.36c1.074 3.167-.735 6.522-4.04 7.495-3.307.972-6.858-.808-7.931-3.974l-1.14-3.36c-1.075-3.167.735-6.522 4.04-7.494 3.306-.973 6.857.806 7.931 3.973z"/></g><g mask="url(#bD)" style="display:block"><path fill="#F14C4C" d="M1215.151 206.374a6.497 6.497 0 0 1 5.305 3.91 5.996 5.996 0 0 1-10.508-1.412l-.186-.506a6.49 6.49 0 0 1 5.39-1.992z"/></g><g mask="url(#bE)" style="display:block"><path fill="#FFF" d="M1197.523 181.749c2.649-4.63 5.875-7.765 7.206-7.003l1.79 1.05c1.27.727.03 5.203-2.521 9.663-2.552 4.459-5.783 7.797-7.052 7.072l-1.809-1.021c-1.33-.762-.262-5.133 2.386-9.761zm-11.987 21.084c2.649-4.629 5.875-7.764 7.206-7.002l1.791 1.05c1.27.726.029 5.203-2.523 9.663-2.551 4.459-5.782 7.797-7.05 7.07-.05-.027-1.76-.992-1.81-1.02-1.33-.762-.262-5.132 2.386-9.76z"/><path fill="#4B4B4B" d="M1187.324 200.84c1.269-2.217 2.814-3.719 3.452-3.354.023.013 1.237.632 1.26.645.608.348.013 2.493-1.209 4.629-1.222 2.136-2.77 3.735-3.378 3.387-.023-.013-1.245-.617-1.268-.63 2-2.43 2.64-5.01 1.143-4.676zm9.35-16.508c1.27-2.217 2.815-3.72 3.452-3.354.024.013 1.238.631 1.26.645.609.347.014 2.493-1.208 4.629-1.222 2.136-2.77 3.735-3.379 3.388-.023-.014-1.245-.618-1.268-.631 2.001-2.429 2.64-5.011 1.143-4.677z"/><path stroke-linecap="round" stroke-linejoin="round" stroke="#E89665" stroke-width="3" d="m-50.353 5.574 8.892 4.251-8.985 3.287m74.943-6.57L17.39 8.811l8.055 3.69" fill="none" transform="matrix(.43185 -.75476 .217 .12416 1199.358 183.897)"/></g><path fill="#FFCBA3" d="M193.134-316.213c7.189 0 13.016 5.89 13.016 13.157 0 7.266-5.827 13.156-13.016 13.156s-13.016-5.89-13.016-13.156c0-7.267 5.827-13.157 13.016-13.157z" transform="rotate(.777 -39194.207 70924.837)" style="display:block"/><path fill="#FFB100" d="M205.527-314.784c-9.352-.283-11.535 5.853-11.832 11.225-.298 5.373 1.014 11.845 9.903 12.441 8.89.596 35.417 4.289 48.183 6.102 5.189.72 12.248-2.251 13.411-9.808 1.163-7.556-5.288-12.206-10.272-13.606-10.078-2.829-40.04-6.07-49.393-6.354z" transform="rotate(.777 -39231.585 70998.347)" style="display:block"/><path stroke-linecap="round" stroke-linejoin="round" stroke="#FF9500" stroke-width="12" d="M370.75-299.25s6.572 2.453 12 6.25" fill="none" transform="rotate(7.612 -3259.543 7200.929)" style="display:block"/><path stroke-linecap="round" stroke-linejoin="round" stroke="#FF9500" stroke-width="12" d="M349-258.75s5.005 6.465 8 12.25" fill="none" transform="rotate(-12.21 3358.172 -4493.189)" style="display:block"/><g style="display:block"><path stroke-linecap="round" stroke-linejoin="round" stroke="#00BDFF" stroke-width="7" d="m1168.566 160.463 6.452-3.468m-.291 13.534 5.585-3.297m-6.152 9.92c10.161 6.198 16.396-4.109 20.95-.92" fill="none"/><path fill="#00BDFF" d="M1122.162 191.685c-2.07.55-3.878-1.502-3.075-3.487l2.228-5.508 6.59 7.473-5.743 1.522zm-4.708-8.732c-1.814-1.14-1.548-3.862.452-4.627l5.547-2.127-.97 9.916-5.03-3.162zm25.153 13.079c-9.687 2.67-19.704-3.019-22.374-12.705-2.67-9.688 3.02-19.704 12.706-22.374 0 0 11.462-3.069 19.54-7.115 8.078-4.047 19.815-2.185 24.9 6.48 5.086 8.666 1.808 19.6-6.482 24.9-8.29 5.3-28.29 10.814-28.29 10.814z"/><path fill="#FFF" d="M1141.445 187.905a6.173 6.173 0 0 1-7.938-3.632l-2.568-6.903a6.173 6.173 0 0 1 11.57-4.305l2.568 6.902a6.173 6.173 0 0 1-3.632 7.938z"/><path fill="#FFA3A3" d="M1135.661 178.443c.574.242.825.917.55 1.475l-.754 1.529c-.42.852-1.655.789-1.986-.101l-.816-2.193c-.33-.89.563-1.745 1.437-1.375l1.57.665z"/><path fill="#00729A" d="M1131.729 183.979a2.274 2.274 0 1 0-4.485-.76 2.274 2.274 0 0 0 4.485.76zm-1.345-3.743a2.273 2.273 0 1 0-4.484-.757 2.273 2.273 0 1 0 4.484.757z"/></g></g><g clip-path="url(#bJ)" style="display:block" transform="matrix(-1 0 0 1 1916 -23.5)"><g style="display:block"><path fill="#4CC5FF" d="M1601.058 779.62c4.208-4.43 11.21-4.611 15.64-.403l16.787 15.944c4.43 4.208 4.61 11.21.403 15.64l-4.059 4.273c-8.397 8.588-14.894 4.127-25.78-3.683-10.11-8.285-16.026-17.33-8.394-25.926l5.403-5.845z"/><path fill="#1CB0F6" d="M1612.326 797.697c-7.461-6.733-8.853-14-5.167-18.137 5.768-6.473 19.651-20.564 28.965-27.555 6.203-4.657 27.38-13.338 49.616-18.243 9.824-2.165 19.542 4.04 21.71 13.863 2.167 9.823-4.04 19.543-13.862 21.71-12.065 2.665-32.073 10.27-35.966 12.122-3.027 2.773-16.189 14.32-23.341 22.372-4.616 5.196-15.217-.052-21.955-6.132z"/><path stroke-linecap="round" stroke="#FF4B4B" stroke-width="12.767" d="M1579.19 811.32c7.557 6.998 19.884 5.634 19.884 5.634" fill="none"/></g><g style="display:block"><path fill="#A46648" d="m1660.913 670.673 24.459 38.217c3.878 5.434 11.428 6.696 16.863 2.818 5.434-3.878 6.697-11.427 2.818-16.862l-29.875-32.865a8.352 8.352 0 1 0-14.265 8.692z"/><path stroke-linecap="round" stroke-linejoin="round" stroke="#A46648" stroke-width="7.277" d="m1652.29 660.42 9.17 4.089m-2.711-15.648 1.399 9.725m5.497-10.573-.741 11.473m7.38-6.85-2.649 6.64" fill="none"/></g><g style="display:block"><path fill="#3D3D3D" d="m1722.646 645.15 25.397-19.328c9.276-7.048 22.51-5.243 29.557 4.033l6.838 8.997c7.048 9.276 5.242 22.509-4.034 29.558l-8.045 6.113c-9.277 7.05-22.51 5.244-29.559-4.032l-20.154-25.34zm9.39-5.684-13.838 45.404-27.36-8.966c-9.978-3.533-15.203-14.487-11.67-24.465l3.427-9.678c3.532-9.978 14.485-15.202 24.463-11.669l24.977 9.374zm25.665 19.665c1.35 10.5-50.38 17.147-51.73 6.649l-4.333-33.712c-1.349-10.498 6.068-20.104 16.568-21.453l13.708-1.762c10.5-1.35 20.105 6.067 21.455 16.566l4.332 33.712z"/><path fill="#A46648" d="m1737.276 713.73-37.316-11.79c-8.343-2.636-13.455-11.03-11.969-19.653l4.154-24.105a14.638 14.638 0 0 1 10.478-11.313l27.59-7.605a19.867 19.867 0 0 1 18.45 4.281l11.59 13.214a26.795 26.795 0 0 1 5.343 25.94l-6.366 19.613c-2.908 9.218-12.738 14.331-21.954 11.419z"/><path fill="#FDB02A" d="m1764.454 686.216 1.142-3.518a26.795 26.795 0 0 0-5.342-25.94l-11.59-13.213a19.867 19.867 0 0 0-18.45-4.28l-14.325 3.948c11.478 2.581 33.565 10.991 48.565 43.003zm-48.565-43.003-13.266 3.656a14.638 14.638 0 0 0-10.478 11.313l-1.43 8.3c8.008-11.955 25.174-23.269 25.174-23.269zm.688-1.448c.242.69-.234 1.369-.958 1.47-6.505.904-14.006-2.619-15.645-10.215-.154-.715.229-1.426.959-1.47 9.67-.577 13.832 5.038 15.644 10.215zm-.58 1.39c-.691.242-1.41-.23-1.47-.959-.335-4.18.132-12.246 10.215-15.645a1.106 1.106 0 0 1 1.47.96c.601 7.649-2.904 13.079-10.216 15.644z"/><path fill="#A46648" d="M1763.018 676.374a8.151 8.151 0 0 1-10.465 4.838 8.151 8.151 0 0 1-4.838-10.465 8.152 8.152 0 0 1 10.465-4.838 8.152 8.152 0 0 1 4.838 10.465z"/></g><g style="display:block"><path fill="#FFF" d="M1714.133 661.417c.203-3.947 3.629-7.382 7.52-7.538 3.89-.157 6.666 3.03 6.087 6.992l-1.127 7.726c-.511 3.5-3.616 6.36-7.054 6.498-3.437.136-6.449-1.285-6.27-4.771l.844-8.907z"/><path fill="#A46648" d="M1712.428 673.702c1.58-2.653 11.479-6.286 15.669-5.568l-3.892 9.494c-6.18 1.505-11.777-3.926-11.777-3.926z"/><path stroke-linecap="round" stroke="#86401F" stroke-width="4" d="M1697.894 668.673c4.192-3.326 8.6.359 8.6.359" fill="none"/><path fill="#86401F" d="M1710.825 669.404c.1.01 2.073 3.351 1.928 4.682a2.425 2.425 0 0 1-4.822-.526c.146-1.331 2.794-4.167 2.894-4.156zm-.334 7.132-2.094.192a2.497 2.497 0 0 1-.454-4.973l2.093-.192a2.498 2.498 0 0 1 .455 4.973z"/><path fill="#A41414" d="M1725.847 679.475c-1.362 5.982-11.26 10.683-18.608 6.706-2.17-1.175-1.465-4.187.833-5.087 3.148-1.234 5.896-3.164 8.409-5.728 2.512-2.565 5.786-3.351 7.91-.983 1.112 1.24 1.948 2.931 1.456 5.092z"/><path stroke-linecap="round" stroke="#3D3D3D" stroke-width="6.095" d="m1722.11 660.54-.255 4.969" fill="none"/><path fill="#E64340" d="M1715.487 684.091c-1.455-2.3-.01-5.827 3.228-7.875 2.124-1.343 4.49-1.717 6.279-1.166.795 1.15 1.259 2.603.902 4.392-.733 3.679-4.244 5.734-5.831 6.489-1.955.177-3.697-.447-4.578-1.84z"/><path fill="#E7E7E7" d="M1720.696 676.976a5.596 5.596 0 0 1-9.213 2.44c1.818-1.083 2.818-1.757 5.047-4.083 2.23-2.325 5.788-3.35 7.912-.982.293.328.565.687.795 1.078-.33.356-1.448 2.308-4.541 1.547z"/></g><path fill="#FDB02A" d="m749.545 173.4-6.236 3.947c-11.545 7.307-26.828 3.871-34.135-7.675l-3.946-6.236c-7.229-11.421-3.83-26.538 7.59-33.766 14.99-9.487 34.832-5.027 44.319 9.963 7.228 11.421 3.829 26.539-7.592 33.767zm-2.502-9.683-33.434-7.517 4.609-20.499c2.076-9.233 11.242-15.035 20.475-12.959 9.232 2.076 15.034 11.242 12.958 20.475l-4.608 20.5z" transform="rotate(4.696 -5733.61 12375.03)" style="display:block"/><path fill="#1CB0F6" d="M740.472 155.971c10.32 11.635 9.254 29.433-2.381 39.753s-29.433 9.254-39.753-2.381-9.254-29.433 2.381-39.753 29.433-9.254 39.753 2.381z" transform="rotate(4.696 -5739.707 12374.78)" style="display:block"/><g style="display:block"><path stroke-linecap="round" stroke-linejoin="round" stroke="#A46648" stroke-width="13" d="m1760.66 730.19 5.09-24.656m4.088 24.583 13.736-13.774" fill="none"/><path fill="#A46648" d="m1727.46 728.47 13.767 22.475 30.135-24.468s-30.189-9.502-32.314-9.855c-3.055-.872-6.562-1.418-9.274.575a8.586 8.586 0 0 0-2.314 11.273zm52.732 11.482-.046-.412c-.637-5.674-3.276-10.634-7.079-14.16-4.214-3.91-9.855-6.058-15.787-5.47-11.286 1.118-18.828 11.63-17.495 23.5l.046.41c1.333 11.87 11.07 20.936 22.356 19.816 11.286-1.12 19.346-11.723 18.005-23.684z"/><path stroke-linecap="round" stroke="#86401F" stroke-width="4" d="m1745.832 734.604 12.49-6.452c3.166-1.636 7.155-.496 8.908 2.545 0 0 0 0 0 0 1.754 3.041.608 6.833-2.559 8.469l-12.489 6.45" fill="none"/></g><g style="display:block"><path fill="#1CB0F6" d="M1696.388 769.445c-8.898.944-17.635-4.217-20.854-13-1.202-3.281-2.746-7.228-4.704-11.247-5.968 4.97-8.297 11.214-13.238 17.466-6.833 8.645-19.38 10.115-28.025 3.282-8.644-6.833-10.115-19.38-3.283-28.025.291-.367 8.612-9.135 16.727-17.649 16.046-16.834 25.213-23.602 35.09-22.557a20.711 20.711 0 0 1 13.367 6.887c11.425 12.539 17.787 27.727 21.586 38.092 3.798 10.36-1.523 21.838-11.884 25.636a20.062 20.062 0 0 1-4.782 1.115z"/><path stroke-linecap="round" stroke-linejoin="round" stroke="#0395DB" stroke-width="4" d="m1658.376 759.062 11.839-15.499s6.684 21.54 14.57 23.595" fill="none"/><path fill="#5EC6FF" d="M1648.551 776.708c-2.982 3.758-13.05.73-22.49-6.761-9.44-7.491-14.674-16.61-11.692-20.368.768-.969 9.812-12.165 11.705-14.44 3.046-3.66 13.14-.35 22.194 6.673 9.054 7.024 14.57 16.25 11.652 20.355-2.916 4.104-10.968 14.036-11.369 14.541z"/><path stroke-linecap="round" stroke="#33B4F7" stroke-width="4.078" d="M1619.802 750.576c4.306.592 10.022 3.305 15.46 7.66 5.437 4.353 9.334 9.34 10.853 13.412" fill="none"/><path stroke-linecap="round" stroke="#FF4B4B" stroke-width="13.049" d="M1607.196 757.62c6.569 7.183 16.646 13.083 16.646 13.083" fill="none"/></g></g><g clip-path="url(#bO)" style="display:block" transform="matrix(-1 0 0 1 1916 -23.5)"><path fill="#FFB7E3" d="M467.017-248.933s-21.285-1.263-52.276-3.165c-15.682-.962-21.741 12.598-21.142 21.885.599 9.287 9.345 23.196 24.422 18.787 30.521-8.926 62.293-17.748 62.293-17.748l-13.297-19.759z" transform="rotate(14.197 -1327.632 3958.383)" style="display:block"/><g style="display:block"><path fill="#FFB7E3" d="M1394.178 303.83c-29.609-9.397-51.989-14.95-62.431-17.972-10.442-3.024-22.443 12.447-24.286 27.726-1.857 15.387 6.557 27.85 17.741 28.596 11.348.76 30.469 2.963 62.18 1.884 15.63-.533 20.271-9.128 21.901-16.454 1.63-7.326-.088-19.015-15.105-23.78z"/><path fill="#FF9BDE" d="M1338.681 320.35c-4.395 11.875-13.987 18.679-21.422 15.194-7.436-3.484-9.9-15.937-5.505-27.812 4.395-11.876 13.986-18.68 21.422-15.196 7.436 3.485 9.9 15.937 5.505 27.813z"/></g><path stroke-linecap="round" stroke-linejoin="round" stroke="#FF7AD5" stroke-width="26.589" d="M332.128-229.744c4-8.5 8.31-18.96 13.244-28.36" fill="none" transform="rotate(-12.708 3224.237 -4346.332)" style="display:block"/><path stroke-linecap="round" stroke-linejoin="round" stroke="#FF86D0" stroke-width="15" d="M502.881-191.052c.376-4.651-.544-10.655-2.324-15.564" fill="none" transform="rotate(-25.436 2268.617 -2071.655)" style="display:block"/><path fill="#FFB7E3" d="M477.637-216.167c-7.613 5.833-.003.004-.006.006 0 0-18.631 14.661-50.031 23.985-8.308 2.467-15.805 6.766-15.948 15.431-.142 8.665 6.764 15.82 15.43 15.948 28.668.422 61.793-23.578 70.09-30.808 7.129-6.212 7.901-15.269 2.504-22.049-5.394-6.777-14.426-8.346-22.039-2.513z" transform="rotate(12.077 -1749.191 4679.145)" style="display:block"/><path fill="#FFB7E3" d="M457.463-227.353c-11.621 5.879-32.272 15.702-43.279 41.145-11.007 25.443 20.779 26.539 27.111 14.999 7.705-14.041 24.272-24.118 27.134-26.05 17.148-11.237 6.297-41.165-10.961-30.097" transform="rotate(8.189 -3019.094 6864.166)" style="display:block"/><path fill="#FFB3E6" d="M528.609-252.517c-1.324-2.088 4.65-9.711 4.65-9.711l14.956 10.268a12.758 12.758 0 0 0 7.223 2.241l22.195.002c4.776 0 7.827 5.094 5.572 9.305l-2.776 5.185a32.342 32.342 0 0 0-3.439 10.258c-.964 6.153-7.198 9.99-13.126 8.079l-5.291-1.706a42.078 42.078 0 0 1-26.151-24.402l-3.813-9.519z" transform="rotate(-5.782 6695.822 -9637.002)" style="display:block"/><g style="display:block"><path fill="#FFB7E3" d="M1470.727 303.31c16.975 14.973 18.597 40.872 3.624 57.847-7.252 8.221-20.56 14.172-33.467 10.498-13.831-3.937-22.259-16.693-27.734-27.001-3.27-6.154-5.376-11.574-6.25-18.348-.875-6.773 1.172-14.261 5.98-19.371 15.514-16.484 40.872-18.598 57.847-3.625z"/><path fill="#FF86D0" d="M1483.913 341.524a41.1 41.1 0 0 0 .638-5.632l-6.024-16.001-17.699-23.042a40.495 40.495 0 0 0-3.756-1.517l-5.902-1.567-.067-.014c-8.529 6.929-10.724 20.53-4.155 31.377 7.728 12.762 20.697 20.285 36.965 16.396z"/><path fill="#FFB3E6" d="M1459.669 331.672a.666.666 0 0 1 .978.03l2.573 2.96a.666.666 0 0 1-.028.906l-4.655 4.7a.666.666 0 0 1-.942.003l-2.76-2.736a.667.667 0 0 1-.006-.941l4.84-4.922zm-11.614-23.595a.666.666 0 0 1 .87.448l1.051 3.779a.666.666 0 0 1-.416.805l-6.222 2.242a.666.666 0 0 1-.853-.402l-1.316-3.658a.667.667 0 0 1 .4-.852l6.486-2.362z"/><path fill="#1CB0F6" d="M1459.81 289.02c27.485-.543 38.993 23.224 30.805 42.262l-1.048 2.434c-3.641 8.468-23.556 10.872-35.303-7.755-13.83-19.954-4.81-36.302 5.546-36.94z"/></g><path stroke-linecap="round" stroke-linejoin="round" stroke="#1CB0F6" stroke-width="21" d="M503.798-354.84s-5.893 26.057-7.922 38.366c-2.058 12.482-4.343 36.008-4.343 36.008" fill="none" transform="rotate(4.218 -6764.911 13277.54)" style="display:block"/><path stroke-linecap="round" stroke="#1CB0F6" stroke-width="21" d="M510.403-244.435s24.788 4.33 37.181 6.993c14.819 3.186 44.404 10.542 44.404 10.542" fill="none" transform="rotate(4.218 -6764.911 13277.54)" style="display:block"/><path fill="#E18E70" d="M495.071-354.738c-6.063 6.951-16.614 7.671-23.566 1.608-6.952-6.064-7.672-16.615-1.609-23.566 6.064-6.952 16.615-7.673 23.567-1.609 6.952 6.064 7.671 16.615 1.608 23.567z" transform="rotate(4.218 -6766.782 13621.113)" style="display:block"/><path fill="#E18E70" d="M592.492-232.902c-7.193-7.197-7.191-18.862.006-26.057 7.198-7.194 18.865-7.191 26.058.006 7.194 7.198 7.191 18.864-.007 26.058-7.198 7.194-18.862 7.19-26.057-.007z" transform="rotate(4.218 -7033.57 13087.9)" style="display:block"/><path fill="#FFB3E6" d="M606.933-297.91c-9.289 35.122-45.292 56.063-80.414 46.774-35.122-9.29-56.063-45.292-46.774-80.414 9.289-35.122 45.292-56.063 80.414-46.774 35.122 9.289 56.063 45.292 46.774 80.414z" transform="rotate(12.218 -1663.382 4544.272)" style="display:block"/><g style="display:block"><path fill="#E18E70" d="M1529.293 237.746c14.723 16.722 12.884 42.572-4.109 57.74-16.992 15.17-39.33 15.153-54.053-1.568-14.724-16.722-16.257-43.815.736-58.984 16.992-15.168 42.703-13.91 57.426 2.812z"/><path fill="#A70000" d="M1472.932 288.91c-1.726 3.34.282 10.709 13.367 15.53 13.085 4.82 17.63-3.778 18.637-5.726 1.007-1.95 4.092-10.534-2.363-12.912-5.059-1.864-12.828 2.122-19.11-.192-6.28-2.314-8.805-.04-10.531 3.3z"/><path fill="#FFF" d="M1502.574 285.804c-2.393-.882-5.393-.455-8.554-.004-3.523.5-7.247 1.031-10.556-.188-2.91-1.072-5.013-1.16-6.605-.613 1.275 2.11 4.095 4.545 8.413 6.535 7.79 3.525 15.688 2.714 20.57.217.759-3.039-1.256-5.206-3.268-5.947z"/><path fill="#9E4D31" d="M1484.5 270.092c.077.145-1.666 5.665-3.39 7.418-1.693 1.725-5.389.394-6.414-1.502-1.026-1.896-.086-3.174 1.93-4.102 1.55-1.064 7.796-1.957 7.874-1.814zm-9.732-18.71c-.718-.152-1.024-.895-.683-1.66.342-.764 1.202-1.262 1.92-1.11 5.143 1.09 7.552 4.316 8.421 7.886.856 3.51.231 7.338-.616 9.832-.264.777-1.086 1.35-1.837 1.279-.75-.07-1.144-.757-.88-1.533.706-2.081 1.24-5.364.52-8.316-.706-2.894-2.608-5.481-6.845-6.378zm33.572 29.47c.379.7 1.303.983 2.063.63.76-.353 1.07-1.207.69-1.908-2.884-5.334-7.378-7.84-11.81-8.753-4.365-.898-8.637-.252-11.287.634-.8.267-1.216 1.082-.93 1.82.285.738 1.165 1.12 1.965.852 2.203-.736 5.875-1.293 9.571-.532 3.628.747 7.307 2.761 9.738 7.257z"/><path fill="#3B3B3B" d="M1550.336 268.39c.281-2.385-1.753-4.528-3.805-4.783-1.54.093-3.345-.625-5.415-2.116-3.395-2.302-3.242-25.828-27.195-36.491-9.199-4.57-24.624-4.592-27.759 1.942-6.185 12.892-2.658 36.485 24.623 48.188 25.586 11.389 36.444.673 39.551-6.74z"/></g></g><g clip-path="url(#bY)" style="display:block" transform="matrix(-1 0 0 1 1916 -23.5)"><g mask="url(#bZ)" style="display:block"><g clip-path="url(#ca)"><path stroke-linecap="round" stroke-linejoin="round" stroke="#3D3D3D" stroke-width="24" d="M541.75 368c5.75 8.75 22.071 22.16 22.071 22.16s9.503.38 25.471-.07" fill="none" transform="rotate(-10 4050.077 -4835.871)" style="display:block"/><path fill="#3D3D3D" d="M512.018 280.06c14.429 0 26.125 14.439 26.125 32.25s-11.352 31.792-25.781 31.792c-14.429 0-27.084-13.935-27.084-31.746s12.311-32.296 26.74-32.296zm43.423 7.966c27.555.062 53.428 14.596 49.161 35.812-4.533 22.538-19.548 27.499-42.525 28.246-51.772 1.682-68.584-64.197-6.636-64.058z" transform="rotate(-10 4056.122 -4887.942)" style="display:block"/><path fill="#DB8D74" d="M521.5 303c-16.5 11-42 12.5-66 13.5s-53.834 22.53-51 52c2.5 26 27.5 43 54.5 43.5 30.012.556 61-2.5 100.5-24s36.5-55.5 23.5-77-45-19-61.5-8z" transform="rotate(-10 4091.52 -4911.194)" style="display:block"/><g mask="url(#cb)" style="display:block"><path fill="#FFAADE" d="M1468.863 840.933c12.495-6.279-148.707-11.635-120.33 94.2 32.625 121.684 217.518-7.033 184.848 5.993-17.789 7.093-43.037 9.84-57.511 4.971a48.399 48.399 0 0 1-8.417-3.738 44.922 44.922 0 0 1-7.232-5.082c-7.56-6.52-14.39-16.458-18.886-28.206-9.198-24.035 9.239-58.946 27.528-68.138zm-25.218 11.164s-115.231-2.266-95.866 81.646c19.366 83.912 140.333 28.855 140.333 28.855s-61.548-.74-73.94-42.277c-12.173-40.795 29.473-68.224 29.473-68.224zm-33.848 27.4-3.34 6.2 11.424-1.754 2.955-6.346-11.04 1.9zm17.846-23.117s-96.335 12.742-76.822 77.335c19.512 64.593 117.831 33.45 117.831 33.45s-48.92-3.776-62.292-45.11c-11.591-35.836 21.283-65.675 21.283-65.675zm-14.255 61.3-9.32 3.73 3.178 8.257 8.853-4.396-2.711-7.592z"/><path fill="#A56641" d="M1443.645 852.097s-115.231-2.266-95.866 81.646c19.366 83.912 140.333 28.855 140.333 28.855s-61.548-.74-73.94-42.277c-12.173-40.795 29.473-68.224 29.473-68.224z"/><path fill="#2CE69B" d="m1409.797 879.498-3.34 6.2 11.424-1.755 2.955-6.346-11.04 1.9zm17.846-23.118s-96.335 12.742-76.822 77.335c19.512 64.593 117.831 33.45 117.831 33.45s-48.92-3.776-62.292-45.11c-11.591-35.836 21.283-65.675 21.283-65.675zm-14.255 61.3-9.32 3.73 3.178 8.257 8.853-4.396-2.711-7.592z"/></g><g mask="url(#cc)" style="display:block"><path fill="#3D3D3D" d="M1459.794 802.944c-17.88 4.422-21.207 26.09-19.311 40.214 1.897 14.136 6.172 29.375 22.174 35.692 16.795 6.63 34.48-7.095 32.736-37.25-1.258-21.76-17.72-43.078-35.599-38.656z"/></g><path fill="#3D3D3D" d="M557.75 265.5c16.983 0 30.75 13.711 30.75 30.625s-13.767 30.625-30.75 30.625S527 313.039 527 296.125s13.767-30.625 30.75-30.625z" transform="rotate(-10 4050.02 -4784.77)" style="display:block"/><path fill="#DB8D74" d="M512.021 320.5c6.639 0 12.02 5.382 12.02 12.021 0 6.639-5.381 12.02-12.02 12.02-6.639 0-12.021-5.381-12.021-12.02 0-6.639 5.382-12.021 12.021-12.021z" transform="rotate(-10 4432.435 -6340.013) scale(.5 .75)" style="display:block"/><g style="display:block"><path fill="#B82C2C" d="M1490.73 904.731a2.511 2.511 0 0 1 3.405-1.008l26.812 14.57a2.511 2.511 0 0 1 1.008 3.406l-.14.258c-4.685 8.624-15.474 11.814-24.097 7.13-8.624-4.687-11.815-15.476-7.13-24.098l.141-.258z"/><path fill="#FD5050" d="M1508.733 931.06a17.69 17.69 0 0 1-11.016-1.974 17.713 17.713 0 0 1-8.487-10.347 17.65 17.65 0 0 1 11.026 1.965 17.668 17.668 0 0 1 8.477 10.357z" opacity=".8"/></g><path stroke-linecap="round" stroke-linejoin="round" stroke="#3D3D3D" stroke-width="24" d="M536.818 374.269c8.057 4.734 26.951 16.388 26.951 16.388l26.417.185" fill="none" transform="rotate(-10 4050.077 -4835.871)" style="display:block"/><g style="display:block"><path fill="#FFF" d="M1530.698 900.895s13.448-6.935 18.02-8.018c1.847-8.122 5.557-24.31-3.736-23.41-6.418.62-10.024 9.595-10.753 13.571l-3.531 17.857zm-7.44-30.018-.9-.313c-5.748-1.242-11.756 1.104-13.166 6.672l-3.508 13.67c11.09 1.673 20.347 8.774 20.347 8.774l3.725-16.4c.97-3.829-1.287-11.029-6.499-12.403z"/><path fill="#3D3D3D" d="M1536.667 880.914c.363-2.834 2.088-5.1 4.418-4.835 2.33.265 3.362 2.735 3 5.569l-.23 1.786c-.362 2.834-2.105 4.93-4.31 4.695-2.205-.236-3.47-2.595-3.107-5.43l.229-1.785zm-26.635-2.023c.583-2.764 3.635-4.346 5.58-3.984 1.944.361 3.8 3.138 3.216 5.902l-.367 1.74c-.583 2.764-3.385 4.469-5.33 4.107-1.944-.362-4.05-3.261-3.467-6.025l.368-1.74z"/></g><path stroke-linecap="round" stroke-linejoin="round" stroke="#3D3D3D" stroke-width="12" d="M568.75 333.5s7.5-2 11.5 1m17.608 3.473s7.344 2.513 8.997 7.232" fill="none" transform="rotate(-10 4023.292 -4817.698)" style="display:block"/><path fill="#DB8D74" d="M571.295 372.25c4.029 0 7.295 3.217 7.295 7.186s-3.266 7.186-7.295 7.186-7.295-3.217-7.295-7.186 3.266-7.186 7.295-7.186z" transform="rotate(-10 3858.903 -4490.175) scale(1.1)" style="display:block"/></g></g><g style="display:block"><path fill="#DB8D74" d="M1426.493 950.161c-7.73 3.36-18.578 7.44-15.624 17.876 2.65 9.367 14.43 8.408 22.008 4.914 3.97 4.667 9.756 1.05 7.45-3.816-3.862-8.145-7.338-21.798-13.834-18.974z"/><path stroke-linecap="round" stroke-linejoin="round" stroke="#FFAADE" stroke-width="25" d="m1431.217 928.247-.26 27.77" fill="none"/></g></g></g></svg>